<?xml version="1.0" encoding="UTF-8" standalone="no"?>
<!-- Created with Inkscape (http://www.inkscape.org/) -->

<svg
   xmlns:dc="http://purl.org/dc/elements/1.1/"
   xmlns:cc="http://creativecommons.org/ns#"
   xmlns:rdf="http://www.w3.org/1999/02/22-rdf-syntax-ns#"
   xmlns:svg="http://www.w3.org/2000/svg"
   xmlns="http://www.w3.org/2000/svg"
   xmlns:sodipodi="http://sodipodi.sourceforge.net/DTD/sodipodi-0.dtd"
   xmlns:inkscape="http://www.inkscape.org/namespaces/inkscape"
   id="svg2"
   version="1.1"
   inkscape:version="0.47 r22583"
   width="206"
   height="245"
   sodipodi:docname="tux.svg">
  <metadata
     id="metadata8">
    <rdf:RDF>
      <cc:Work
         rdf:about="">
        <dc:format>image/svg+xml</dc:format>
        <dc:type
           rdf:resource="http://purl.org/dc/dcmitype/StillImage" />
        <dc:title></dc:title>
      </cc:Work>
    </rdf:RDF>
  </metadata>
  <defs
     id="defs6">
    <inkscape:perspective
       sodipodi:type="inkscape:persp3d"
       inkscape:vp_x="0 : 0.5 : 1"
       inkscape:vp_y="0 : 1000 : 0"
       inkscape:vp_z="1 : 0.5 : 1"
       inkscape:persp3d-origin="0.5 : 0.33333333 : 1"
       id="perspective10" />
    <inkscape:perspective
       id="perspective2946"
       inkscape:persp3d-origin="0.5 : 0.33333333 : 1"
       inkscape:vp_z="1 : 0.5 : 1"
       inkscape:vp_y="0 : 1000 : 0"
       inkscape:vp_x="0 : 0.5 : 1"
       sodipodi:type="inkscape:persp3d" />
  </defs>
  <sodipodi:namedview
     pagecolor="#ffffff"
     bordercolor="#666666"
     borderopacity="1"
     objecttolerance="10"
     gridtolerance="10"
     guidetolerance="10"
     inkscape:pageopacity="0"
     inkscape:pageshadow="2"
     inkscape:window-width="1680"
     inkscape:window-height="973"
     id="namedview4"
     showgrid="false"
     inkscape:zoom="1.9591837"
     inkscape:cx="7.1014838"
     inkscape:cy="144.76149"
     inkscape:window-x="0"
     inkscape:window-y="27"
     inkscape:window-maximized="1"
     inkscape:current-layer="svg2" />
  <g
     id="g2952">
    <path
       style="fill:#fbfbfa"
       d="M 44.916667,136.79167 71.458333,85.75 73.958335,41.34375 110.14584,17.864583 l 31.54166,68.90625 24.5,54.104167 -5.10417,75.54167 -62.14583,3.6875 L 48,215 44.916667,136.79167 z"
       id="path2968"
       sodipodi:nodetypes="cccccccccc" />
    <path
       style="fill:#a4a3a1"
       d="m 53,237.45307 c -9.618285,-3.7846 -10.183158,-3.9607 -27,-8.41738 C 6.767098,223.93872 5.5251223,223.44793 4.1340986,220.39497 3.2260442,218.40201 3.4112582,216.82211 5.0933358,212.21256 6.7980623,207.54094 7.158157,204.35357 7.0694928,194.72063 7.0098614,188.24197 7.4103319,182.1018 7.9594272,181.07581 9.2660785,178.63431 14.125278,177 20.077795,177 c 5.101551,0 6.915066,-1.15173 9.409776,-5.97596 1.076103,-2.08096 1.196853,-3.63759 0.476899,-6.14793 -1.434653,-5.00234 -0.25338,-9.30359 5.595994,-20.37611 2.90553,-5.5 6.683822,-14.5 8.396203,-20 3.224638,-10.35722 4.119966,-11.87744 15.144551,-25.714655 C 69.89514,85.237639 69.351159,87.582588 68.547701,58.064192 67.890585,33.922307 67.966983,32.132607 69.920844,25.896575 72.436475,17.867572 78.065183,11.059609 85.376651,7.202667 90.010475,4.7582341 91.503253,4.5015531 101,4.5162542 c 9.84537,0.015241 10.92693,0.2239564 17.34772,3.347719 7.97307,3.8789578 13.60102,9.1252868 17.00495,15.8518748 3.77246,7.454854 4.60316,11.621283 5.70294,28.603655 0.74579,11.516256 1.58286,17.311942 3.07722,21.305976 3.42586,9.156432 11.96188,23.138305 19.55728,32.034531 6.02493,7.0568 7.84729,10.10238 11.24545,18.79377 6.67774,17.07946 8.55751,30.48581 5.96776,42.56143 -0.90634,4.2261 -0.83845,5.4062 0.39113,6.79922 0.8183,0.92706 1.81501,3.71057 2.21493,6.18557 1.21126,7.49629 4.02457,11.25534 13.74062,18.35976 7.55521,5.52441 4.29815,11.37567 -10.62138,19.08118 -6.57062,3.39353 -12.2684,7.38013 -18.19332,12.7294 -9.04153,8.16309 -12.46487,9.81414 -20.36958,9.82408 -5.60097,0.007 -12.83549,-3.43119 -14.94175,-7.10113 -0.88299,-1.53852 -2.61032,-3.04952 -3.83852,-3.35778 -1.22819,-0.30826 -11.61164,-0.60567 -23.07431,-0.66092 l -20.841232,-0.10045 -5.434954,3.15336 c -2.989225,1.73434 -6.566335,4.04379 -7.949133,5.13211 -4.110588,3.2352 -11.380845,3.38587 -18.985821,0.39346 z m 52.12701,-23.89247 c 7.83089,-1.65985 16.58037,-6.3557 22.61402,-12.13696 l 4.34167,-4.16005 -0.66377,-6.47879 c -0.6001,-5.85733 -0.45233,-6.67577 1.54047,-8.53235 1.34614,-1.25412 2.41961,-3.74676 2.75747,-6.403 C 136.4072,170.42218 137.50416,169 141,169 c 4.77817,0 5.50784,-2.07281 5.42357,-15.40694 -0.10367,-16.40473 -2.68037,-26.00531 -9.61991,-35.84306 -2.42404,-3.43641 -4.624,-3.66381 -2.41867,-0.25 0.88826,1.375 2.39313,3.7034 3.34417,5.17422 1.67632,2.59249 1.5758,2.56872 -3.2893,-0.77788 -2.76016,-1.89866 -7.81329,-4.2983 -11.22917,-5.33255 C 119.79481,115.52955 117,114.36674 117,113.97977 c 0,-0.90904 12.78334,-2.23171 14.04326,-1.45303 2.9244,1.80738 -0.56371,-13.042419 -4.82158,-20.52674 -4.65926,-8.189855 -7.486,-9.860713 -11.14294,-6.586479 -0.86831,0.777436 -5.60061,4.152436 -10.51622,7.5 -12.450266,8.478709 -16.865517,8.364279 -22.103016,-0.572834 l -2.757299,-4.704975 -2.339689,2.932144 c -1.286829,1.612679 -3.981897,6.166404 -5.989038,10.119384 l -3.649349,7.18725 2.081793,3.28797 2.081793,3.28796 -4.40319,4.219 c -8.006138,7.67123 -14.880489,24.17201 -16.043941,38.51092 -0.818106,10.08271 -1.979564,8.3527 14.71596,21.9196 12.104127,9.83591 14.031755,12.21448 13.642095,16.83352 -0.230604,2.73359 -1.030272,3.99873 -3.510119,5.55331 -4.114475,2.5793 -4.084594,4.02628 0.16593,8.03504 5.674113,5.35138 15.770472,6.77354 28.67256,4.03879 z M 119.96482,60.065741 C 120.53417,59.001899 121,56.295291 121,54.051056 c 0,-3.215638 -0.68879,-4.825615 -3.25,-7.596535 -3.19127,-3.45257 -3.33937,-3.499154 -8.19575,-2.57785 C 104.15765,44.90046 102,46.942017 102,51.024463 c 0,4.278641 1.10715,4.174927 3.37497,-0.316159 1.69977,-3.366136 2.72788,-4.267468 5.13748,-4.503945 6.07495,-0.596195 10.04653,6.303209 7.13862,12.401163 C 116.27505,61.491076 116.24955,62 117.48099,62 c 0.79676,0 1.91448,-0.870416 2.48383,-1.934259 z M 89,50.954545 C 89,48.610689 84.794245,44 82.656239,44 c -0.789069,0 -2.497024,0.925408 -3.795455,2.056463 -1.921217,1.673558 -1.988393,1.881756 -0.360784,1.118166 2.651443,-1.24392 5.984987,0.109729 8.056713,3.271581 C 88.580301,53.534597 89,53.621917 89,50.954545 z"
       id="path2966" />
    <path
       style="fill:#eecd19"
       d="m 58,237.46839 c -2.475,-0.72491 -9.225,-2.8989 -15,-4.83109 -5.775,-1.9322 -15.9,-4.9658 -22.5,-6.74135 C 8.2640819,222.60422 5,220.95416 5,218.06035 c 0,-0.89632 0.9420935,-4.31009 2.0935411,-7.58617 1.8299031,-5.2064 2.0095765,-7.27987 1.4267807,-16.46534 -0.8530153,-13.44441 -0.4573594,-14.07729 9.4634062,-15.13732 7.73398,-0.82637 9.677316,-1.93698 12.876222,-7.35873 1.383198,-2.34434 1.625994,-3.67997 0.903609,-4.9708 -2.124326,-3.79596 -0.250947,-12.6692 4.350798,-20.60751 2.412104,-4.16104 5.683103,-11.58604 7.268887,-16.5 4.459923,-13.82023 5.789473,-16.28233 15.066225,-27.90007 C 71.031489,85.77731 70.552221,87.087698 69.983011,70 69.717355,62.025 69.5,49.414287 69.5,41.976193 c 0,-13.291124 0.05702,-13.639589 3.314271,-20.253267 5.89476,-11.9690155 16.40749,-17.52424 31.065109,-16.4156866 14.05745,1.0631621 25.59092,8.7789786 31.65752,21.1786636 2.47704,5.062885 2.70193,6.586851 5.28587,35.820725 0.7695,8.705882 1.35786,10.775117 5.24177,18.434964 5.94933,11.733314 11.22502,19.749838 17.12766,26.025888 5.39082,5.73184 9.9417,14.66769 14.37837,28.23252 2.38388,7.28859 2.78091,10.13897 2.7858,20 0.003,6.63766 -0.49669,12.69821 -1.18249,14.33391 -1.04072,2.48219 -0.93125,3.04197 0.88196,4.51022 1.30003,1.05271 2.28442,3.34655 2.64613,6.16609 0.85483,6.66346 4.53243,12.16296 11.3152,16.9208 6.79198,4.76431 7.50822,7.10271 3.59861,11.74902 -1.31133,1.55842 -6.72492,5.04606 -12.03022,7.75032 -6.84761,3.49042 -12.09045,7.1497 -18.07195,12.61349 -8.1793,7.47135 -13.00162,9.96972 -19.20643,9.95057 -4.70869,-0.0145 -9.94493,-2.46707 -13.85346,-6.48865 l -4.17759,-4.29842 -9.88806,-0.74216 c -5.43844,-0.40818 -15.78579,-0.49524 -22.994117,-0.19346 -12.38385,0.51845 -13.403277,0.72118 -18.5,3.67891 -2.966674,1.72161 -6.518953,3.96635 -7.893953,4.9883 -3.470066,2.57907 -7.712325,3.07817 -13,1.52945 z m 47.20078,-22.57801 c 7.68363,-1.60889 17.66644,-7.1716 24.81451,-13.82737 l 6.23286,-5.80359 0.28597,-11.73975 c 0.15728,-6.45687 0.72966,-12.18345 1.27195,-12.72574 0.5423,-0.5423 2.62169,-1.03236 4.62087,-1.08902 3.00029,-0.0851 3.76042,-0.54839 4.35397,-2.65397 1.22366,-4.34088 0.75059,-26.23068 -0.69267,-32.05094 -1.57853,-6.36576 -5.90612,-15.42133 -9.36717,-19.60099 -1.32033,-1.59445 -3.16174,-5.9724 -4.09204,-9.72876 -1.83778,-7.420651 -11.10908,-26.533496 -13.27388,-27.364207 -0.73605,-0.282451 -2.80458,0.374783 -4.59672,1.46052 -1.79213,1.085737 -5.93196,3.607425 -9.1996,5.603752 C 101.1159,88.084669 98.514481,89 95.243087,89 c -5.237294,0 -7.520853,-1.067832 -12.533969,-5.861101 -3.143405,-3.005553 -3.952083,-3.369656 -4.734687,-2.131767 -0.519093,0.821077 -0.950696,2.883543 -0.959118,4.583256 -0.0094,1.906766 -1.905169,6.234815 -4.949648,11.300356 -3.714512,6.180376 -5.105633,9.618986 -5.627256,13.909616 -0.471541,3.87868 -1.902849,7.7852 -4.48002,12.22747 -8.286123,14.2828 -11.906952,25.65801 -11.941025,37.51396 -0.01671,5.81545 0.141857,6.19339 4.232636,10.08822 2.3375,2.22554 8.364516,7.28519 13.393369,11.24367 12.490125,9.83166 14.586345,15.73889 6.887794,19.41007 -4.095161,1.95284 -4.285593,2.84801 -1.452325,6.82697 2.070225,2.90736 6.145663,5.50427 10.914688,6.95494 3.820214,1.16206 15.272557,1.0674 21.207254,-0.17528 z M 80.511271,63.981763 C 80.857389,63.421732 80.208947,61.456117 79.070288,59.613729 77.93163,57.771341 77,55.11169 77,53.703395 77,50.978613 79.306498,48 81.416441,48 c 1.823279,0 4.313891,3.043831 5.114056,6.25 C 87.733076,59.068595 90,56.882057 90,50.903527 90,46.623538 84.184254,40.485955 80.90789,41.30827 c -3.446407,0.864993 -6.015381,5.78424 -6.060468,11.605 -0.06568,8.479335 3.254263,14.967285 5.663849,11.068493 z M 120.4433,61.777494 c 2.48128,-3.542536 1.99532,-11.172897 -1.04162,-16.355048 -3.82313,-6.523674 -9.01298,-7.144727 -15.32461,-1.833844 C 101.62316,45.653429 101,46.956676 101,50.023794 101,54.323808 102.48137,59 103.84358,59 c 0.4912,0 1.1392,-1.834927 1.44,-4.077616 C 105.88253,50.45689 108.36843,47 110.98067,47 c 2.6564,0 6.35266,4.642516 6.35266,7.978954 0,1.64738 -0.8446,3.928515 -1.8769,5.06919 -1.60541,1.77396 -1.66568,2.207558 -0.41667,2.997593 2.30564,1.458375 3.72748,1.12466 5.40354,-1.268243 z"
       id="path2964" />
    <path
       style="fill:#e9b10e"
       d="m 58,237.46839 c -2.475,-0.72491 -9.225,-2.8989 -15,-4.83109 -5.775,-1.9322 -15.9,-4.9658 -22.5,-6.74135 C 8.2640819,222.60422 5,220.95416 5,218.06035 c 0,-0.89632 0.9420935,-4.31009 2.0935411,-7.58617 1.8412505,-5.23869 2.0096506,-7.24067 1.3974069,-16.61275 -0.6527654,-9.99237 -0.5651437,-10.78723 1.4064589,-12.75884 1.5866171,-1.58661 3.3909421,-2.11366 7.3525931,-2.14769 7.025403,-0.0604 10.319531,-1.66767 13.18446,-6.4331 1.849755,-3.07682 2.159833,-4.41135 1.368526,-5.88992 -2.139147,-3.99704 -0.327201,-12.69556 4.311371,-20.6974 2.412104,-4.16104 5.683103,-11.58604 7.268887,-16.5 4.459923,-13.82023 5.789473,-16.28233 15.066225,-27.90007 C 71.031489,85.77731 70.552221,87.087698 69.983011,70 69.717355,62.025 69.5,49.414287 69.5,41.976193 c 0,-13.291124 0.05702,-13.639589 3.314271,-20.253267 5.89476,-11.9690155 16.40749,-17.52424 31.065109,-16.4156866 14.05745,1.0631621 25.59092,8.7789786 31.65752,21.1786636 2.47704,5.062885 2.70193,6.586851 5.28587,35.820725 0.7695,8.705882 1.35786,10.775117 5.24177,18.434964 5.94933,11.733314 11.22502,19.749838 17.12766,26.025888 5.39823,5.73971 9.959,14.70153 14.36785,28.23252 2.33198,7.15699 2.77358,10.23802 2.79485,19.5 0.0169,7.34979 -0.53161,12.96256 -1.65287,16.91422 -1.62605,5.73066 -1.61767,5.95657 0.27,7.27874 1.07147,0.75049 2.25822,3.01744 2.63721,5.03767 0.69247,3.69118 1.20635,4.60172 4.89076,8.66596 1.1,1.2134 3.30563,3.75806 4.9014,5.65479 1.61051,1.91427 3.8351,3.44862 5,3.44862 2.64524,0 3.34612,3.7102 1.29284,6.84389 -0.80301,1.22555 -6.06072,4.68703 -11.6838,7.69219 -6.94873,3.71362 -12.89845,7.90497 -18.57328,13.08417 -8.09931,7.39191 -12.94536,9.89326 -19.12998,9.87417 -4.70869,-0.0145 -9.94493,-2.46707 -13.85346,-6.48865 l -4.17759,-4.29842 -9.88806,-0.74216 c -5.43844,-0.40818 -15.78579,-0.49524 -22.994117,-0.19346 -12.38385,0.51845 -13.403277,0.72118 -18.5,3.67891 -2.966674,1.72161 -6.518953,3.96635 -7.893953,4.9883 -3.470066,2.57907 -7.712325,3.07817 -13,1.52945 z m 47.20078,-22.57801 c 7.67971,-1.60807 17.6654,-7.17064 24.80288,-13.81654 l 6.22123,-5.79276 0.41087,-6.89054 c 0.58964,-9.88872 1.1315,-14.49113 1.78277,-15.1424 0.31306,-0.31307 1.3949,0.17803 2.40408,1.09132 2.08232,1.88448 3.77288,2.12407 4.67604,0.66272 2.24372,-3.63042 2.64565,-31.56694 0.57552,-40.00218 -1.55836,-6.34994 -5.88014,-15.40695 -9.3531,-19.60099 -1.32033,-1.59445 -3.16174,-5.9724 -4.09204,-9.72876 -1.83778,-7.420651 -11.10908,-26.533496 -13.27388,-27.364207 -0.73605,-0.282451 -2.80458,0.374783 -4.59672,1.46052 -1.79213,1.085737 -5.93196,3.607425 -9.1996,5.603752 C 101.1159,88.084669 98.514481,89 95.243087,89 c -5.237294,0 -7.520853,-1.067832 -12.533969,-5.861101 -3.143405,-3.005553 -3.952083,-3.369656 -4.734687,-2.131767 -0.519093,0.821077 -0.950696,2.883543 -0.959118,4.583256 -0.0094,1.906766 -1.905169,6.234815 -4.949648,11.300356 -3.714512,6.180376 -5.105633,9.618986 -5.627256,13.909616 -0.471541,3.87868 -1.902849,7.7852 -4.48002,12.22747 -8.286123,14.2828 -11.906952,25.65801 -11.941025,37.51396 -0.01671,5.81545 0.141857,6.19339 4.232636,10.08822 2.3375,2.22554 8.364516,7.28519 13.393369,11.24367 12.490125,9.83166 14.586345,15.73889 6.887794,19.41007 -4.095161,1.95284 -4.285593,2.84801 -1.452325,6.82697 2.070225,2.90736 6.145663,5.50427 10.914688,6.95494 3.820214,1.16206 15.272557,1.0674 21.207254,-0.17528 z M 59.411423,192.84943 c -1.497674,-2.94218 -2.914671,-4.7892 -3.148883,-4.10448 -0.397005,1.16065 4.857853,10.37762 5.554693,9.74288 0.174478,-0.15893 -0.908137,-2.69621 -2.40581,-5.6384 z m -6.066346,-10.39256 c -0.325685,-0.84872 -0.806623,-1.32866 -1.068751,-1.06653 -0.262128,0.26213 -0.179978,0.95654 0.182555,1.54313 0.98605,1.59546 1.56238,1.28551 0.886196,-0.4766 z M 48.5,176 c -0.339919,-0.55 -1.266476,-1 -2.059017,-1 C 45.648442,175 45,175.45 45,176 c 0,0.55 0.926558,1 2.059017,1 1.132459,0 1.780902,-0.45 1.440983,-1 z m 52.23144,-99.567951 c 1.77729,-0.722967 6.01839,-2.94787 9.42465,-4.944227 3.44404,-2.018498 7.00348,-3.417849 8.01856,-3.152401 1.00394,0.262537 1.82535,0.02734 1.82535,-0.52266 0,-0.55 -0.89329,-1.2336 -1.98508,-1.51911 -1.84216,-0.481736 -1.77016,-0.719867 1,-3.30759 C 121.58397,60.586212 122,59.476934 122,55.02686 c 0,-3.763362 -0.70721,-6.377476 -2.59832,-9.604414 -3.82313,-6.523674 -9.01298,-7.144727 -15.32461,-1.833844 C 101.62316,45.653429 101,46.956676 101,50.023794 101,54.323808 102.48137,59 103.84358,59 c 0.4912,0 1.1392,-1.834927 1.44,-4.077616 C 105.88253,50.45689 108.36843,47 110.98067,47 c 2.6564,0 6.35266,4.642516 6.35266,7.978954 0,1.64738 -0.75,3.823976 -1.66666,4.836881 C 114.75,60.828741 114,62.184548 114,62.828741 c 0,1.797496 -3.13131,1.388553 -6.88351,-0.898971 -2.3963,-1.460907 -3.69467,-1.751586 -4.45,-0.996262 C 102.07992,61.520078 100.82453,62 99.876725,62 c -2.594287,0 -7.459597,4.534353 -8.830433,8.229752 -0.667217,1.798636 -1.667061,4.118056 -2.221877,5.154267 -2.011814,3.757398 3.955354,4.282615 11.907025,1.04803 z M 80.511271,63.981763 C 80.857389,63.421732 80.208947,61.456117 79.070288,59.613729 77.93163,57.771341 77,55.11169 77,53.703395 77,50.978613 79.306498,48 81.416441,48 c 1.823279,0 4.313891,3.043831 5.114056,6.25 C 87.733076,59.068595 90,56.882057 90,50.903527 90,46.623538 84.184254,40.485955 80.90789,41.30827 c -3.446407,0.864993 -6.015381,5.78424 -6.060468,11.605 -0.06568,8.479335 3.254263,14.967285 5.663849,11.068493 z"
       id="path2962" />
    <path
       style="fill:#9d6e0f"
       d="m 58,237.46839 c -2.475,-0.72491 -9.225,-2.8989 -15,-4.83109 -5.775,-1.9322 -15.79944,-4.96265 -22.276533,-6.73435 C 8.534149,222.56877 6.328715,221.54419 5.8647832,219 c -0.3622641,-1.98664 3.3499023,-12.84474 3.865105,-11.30544 0.2199006,0.65701 -0.079365,2.08993 -0.6650345,3.18426 -1.8168123,3.39474 -1.2596028,6.94747 1.3587143,8.66306 1.332962,0.87339 7.970462,2.46029 14.75,3.52644 6.779537,1.06616 16.972509,3.10572 22.651047,4.53236 6.671885,1.67621 11.509452,2.37163 13.673611,1.96563 3.598542,-0.67509 8.906393,-5.87014 10.630317,-10.4044 C 73.679626,215.08225 71.489145,208.47854 65.6066,199.5 62.723814,195.1 58.180635,187.93965 55.510647,183.58811 46.727811,169.27388 40.891456,164.84699 34.976246,168.01271 c -2.823245,1.51096 -4.303235,-2.02906 -3.721958,-8.90264 0.361118,-4.2702 1.52186,-7.41696 4.860069,-13.17559 2.412104,-4.16104 5.683103,-11.58604 7.268887,-16.5 4.459923,-13.82023 5.789473,-16.28233 15.066225,-27.90007 C 71.031489,85.77731 70.552221,87.087698 69.983011,70 69.717355,62.025 69.5,49.414287 69.5,41.976193 c 0,-13.291124 0.05702,-13.639589 3.314271,-20.253267 5.89476,-11.9690155 16.40749,-17.52424 31.065109,-16.4156866 14.05745,1.0631621 25.59092,8.7789786 31.65752,21.1786636 2.47704,5.062885 2.70193,6.586851 5.28587,35.820725 0.7695,8.705882 1.35786,10.775117 5.24177,18.434964 5.94933,11.733314 11.22502,19.749838 17.12766,26.025888 5.39823,5.73971 9.959,14.70153 14.36785,28.23252 2.30713,7.0807 2.78302,10.33675 2.85004,19.5 0.094,12.85461 -1.41359,18.32566 -7.16459,26 -5.18177,6.91474 -11.15271,9.83057 -17.64645,8.61741 -2.6447,-0.49409 -5.54891,-1.63796 -6.4538,-2.54195 -2.00749,-2.00549 -3.1804,-16.07779 -1.83996,-22.07546 1.166,-5.21716 0.15389,-24.61027 -1.61785,-31 -1.67083,-6.02576 -5.69815,-14.15395 -8.97181,-18.10744 -1.31733,-1.59091 -3.1563,-5.96595 -4.0866,-9.72231 -2.13042,-8.60224 -11.30059,-26.771601 -13.84799,-27.437759 -1.63255,-0.426924 -1.68562,-0.685877 -0.43231,-2.109577 2.14572,-2.437439 2.96569,-7.646581 1.55836,-9.900072 -0.9883,-1.582519 -0.90642,-2.385715 0.43902,-4.306592 2.58102,-3.684922 2.14992,-11.213692 -0.94443,-16.493804 -3.85099,-6.57123 -9.00916,-7.147942 -15.45098,-1.727508 -3.12945,2.633257 -3.18992,2.84038 -2.61786,8.96648 0.59137,6.332787 -0.37039,8.701031 -2.619972,6.45145 C 98.10079,58.50079 95.941149,58 93.913664,58 87.005052,58 76.763752,70.174855 79.693627,74.904777 c 0.543474,0.877373 2.859739,2.641439 5.147254,3.920147 C 87.128397,80.103633 89,81.78256 89,82.555872 c 0,1.950565 4.481815,2.885029 7.769411,1.619933 C 98.271235,83.59789 101.075,82.819951 103,82.447052 c 1.925,-0.372898 3.95,-1.01104 4.5,-1.418093 0.55,-0.407052 2.0382,-0.99468 3.3071,-1.30584 3.98648,-0.977559 1.91908,1.362657 -4.78482,5.416237 C 101.18812,88.062373 98.572607,89 95.252986,89 c -5.247303,0 -7.528923,-1.066083 -12.543868,-5.861101 -3.143405,-3.005553 -3.952083,-3.369656 -4.734687,-2.131767 -0.519093,0.821077 -0.950696,2.883543 -0.959118,4.583256 -0.0094,1.906766 -1.905169,6.234815 -4.949648,11.300356 -3.714512,6.180376 -5.105633,9.618986 -5.627256,13.909616 -0.471541,3.87868 -1.902849,7.7852 -4.48002,12.22747 -8.286123,14.2828 -11.906952,25.65801 -11.941025,37.51396 -0.01671,5.81545 0.141857,6.19339 4.232636,10.08822 2.3375,2.22554 8.364516,7.28519 13.393369,11.24367 12.490125,9.83166 14.586345,15.73889 6.887794,19.41007 -4.096646,1.95355 -4.285917,2.84756 -1.446948,6.83452 6.759725,9.49316 28.116725,10.57208 44.057005,2.22569 6.68853,-3.50214 18.07454,-13.34619 19.19323,-16.59396 0.33153,-0.9625 1.0669,-1.75 1.63417,-1.75 0.65795,0 1.03138,4.92375 1.03138,13.59887 0,15.32651 1.11165,19.23547 6.41996,22.57486 4.13339,2.60025 10.44525,1.99776 18.12689,-1.73027 12.50227,-6.06758 12.43667,-6.08682 4.99504,1.46501 -7.41933,7.52921 -10.80355,9.63002 -17.14722,10.64441 -6.23129,0.99642 -12.14358,-1.11098 -16.92816,-6.03394 l -4.19038,-4.31159 -9.88806,-0.74216 c -5.43844,-0.40818 -15.78579,-0.49524 -22.994117,-0.19346 -12.38385,0.51845 -13.403277,0.72118 -18.5,3.67891 -2.966674,1.72161 -6.518953,3.96635 -7.893953,4.9883 -3.470066,2.57907 -7.712325,3.07817 -13,1.52945 z M 80.511271,63.981763 C 80.857389,63.421732 80.208947,61.456117 79.070288,59.613729 77.93163,57.771341 77,55.11169 77,53.703395 77,50.978613 79.306498,48 81.416441,48 c 1.823279,0 4.313891,3.043831 5.114056,6.25 C 87.733076,59.068595 90,56.882057 90,50.903527 90,46.623538 84.184254,40.485955 80.90789,41.30827 c -3.446407,0.864993 -6.015381,5.78424 -6.060468,11.605 -0.06568,8.479335 3.254263,14.967285 5.663849,11.068493 z M 93.5,82.039848 C 91.641677,81.278324 91.699418,81.141626 94.3151,80.110133 95.863404,79.49956 97.465578,79 97.875486,79 c 0.409908,0 3.614124,-1.124288 7.120474,-2.498417 l 6.37519,-2.498417 -2.89519,3.021925 c -1.64006,1.711853 -5.05061,3.662017 -7.86707,4.498417 -2.734543,0.812071 -5.002717,1.444864 -5.040391,1.406207 C 95.530824,82.891058 94.6,82.490618 93.5,82.039848 z m 14.1306,-20.674383 c -2.64323,-1.431932 -2.8299,-1.904918 -2.36826,-6.000543 C 105.79883,50.605123 108.26333,47 110.98067,47 c 2.58808,0 6.35266,4.641706 6.35266,7.832796 0,3.315309 -3.15749,8.108235 -5.33333,8.095741 -0.825,-0.0047 -2.79123,-0.708119 -4.3694,-1.563072 z"
       id="path2960" />
    <path
       style="fill:#5d5d5d"
       d="m 57.805804,237.56196 c -2.581808,-0.67344 -5.323212,-1.74648 -6.092009,-2.38453 -0.768798,-0.63804 -1.766056,-0.82648 -2.21613,-0.41875 -0.450073,0.40772 -0.447349,0.10235 0.0061,-0.67862 0.636891,-1.09701 0.389077,-1.25411 -1.089675,-0.69075 -1.306768,0.49783 -1.591141,0.40334 -0.896301,-0.29781 0.696267,-0.70259 3.12392,-0.67798 7.685562,0.0779 6.218669,1.03046 6.992027,0.94409 11.480811,-1.28226 2.702137,-1.34021 5.838889,-3.92216 7.152155,-5.88715 2.034642,-3.04436 2.255474,-4.25487 1.696307,-9.29845 l -0.642856,-5.79846 4.305139,2.20654 c 5.389295,2.76221 16.430695,3.61388 25.049773,1.93219 8.27673,-1.61489 18.18754,-6.92211 25.31702,-13.55723 3.18335,-2.96262 6.18091,-5.14369 6.66123,-4.84684 0.48033,0.29686 0.56647,5.38907 0.19143,11.31602 -0.37504,5.92695 -0.36944,12.85987 0.0125,15.4065 1.43284,9.55484 8.856,13.95108 19.13588,11.33289 3.61132,-0.91977 5.714,-1.05454 6.12319,-0.39247 0.34275,0.55458 0.13131,0.70433 -0.46987,0.33279 -0.60118,-0.37155 -1.47858,0.0134 -1.94978,0.85534 -0.4712,0.84199 -3.31135,2.03507 -6.31146,2.65129 -7.69248,1.58003 -13.08202,-0.0586 -18.48822,-5.62117 l -4.19038,-4.31159 -9.88806,-0.74216 c -5.43844,-0.40818 -15.78579,-0.49524 -22.994112,-0.19346 -12.38385,0.51845 -13.403277,0.72118 -18.5,3.67891 -2.966674,1.72161 -6.518953,3.96635 -7.893953,4.9883 -3.436467,2.5541 -7.641606,3.07138 -13.194196,1.62302 z M 64.689413,196.25 c -2.363611,-3.7125 -6.06108,-9.675 -8.216597,-13.25 -2.155517,-3.575 -6.242619,-8.89961 -9.082447,-11.83247 -5.121532,-5.28931 -5.206739,-5.32978 -10.526847,-5 L 31.5,166.5 31.580754,160 c 0.07212,-5.8051 0.553208,-7.30882 4.5,-14.06552 2.430585,-4.16104 5.716706,-11.58604 7.30249,-16.5 4.459923,-13.82023 5.789473,-16.28233 15.066225,-27.90007 C 71.031489,85.77731 70.552221,87.087698 69.983011,70 69.717355,62.025 69.5,49.414287 69.5,41.976193 c 0,-13.291124 0.05702,-13.639589 3.314271,-20.253267 5.89476,-11.9690155 16.40749,-17.52424 31.065109,-16.4156866 14.05745,1.0631621 25.59092,8.7789786 31.65752,21.1786636 2.47704,5.062885 2.70193,6.586851 5.28587,35.820725 0.7695,8.705882 1.35786,10.775117 5.24177,18.434964 5.94933,11.733314 11.22502,19.749838 17.12766,26.025888 8.13916,8.65403 16.36273,29.45443 17.46762,44.1819 0.82245,10.9628 -0.73775,17.66411 -5.86963,25.21111 -4.98009,7.32375 -9.09531,9.8357 -16.11711,9.83796 -4.00283,0.001 -5.32598,-0.49751 -7.75,-2.92153 C 148.46901,180.62286 148,179.34871 148,175.13594 c 0,-2.75985 -0.40276,-5.26682 -0.89502,-5.57106 -0.52149,-0.32229 -0.4799,-2.32933 0.0996,-4.80902 1.25294,-5.36101 0.31709,-24.64066 -1.51717,-31.25586 -1.67083,-6.02576 -5.69815,-14.15395 -8.97181,-18.10744 -1.31733,-1.59091 -3.16736,-6.00999 -4.11118,-9.82018 -0.94382,-3.81018 -4.18789,-11.682996 -7.20906,-17.495134 -4.65197,-8.949472 -5.33244,-10.919982 -4.44421,-12.869437 1.45933,-3.202878 1.30859,-7.391926 -0.35127,-9.7617 -1.20011,-1.713405 -1.20011,-2.27238 0,-3.913636 2.33874,-3.198419 1.75296,-11.074207 -1.19823,-16.110027 -3.84717,-6.564704 -9.0097,-7.147488 -15.43347,-1.742243 -2.98912,2.51518 -3.15868,3.009402 -2.7448,8.000292 L 101.66455,57 l -6.20944,0 -6.209436,0 0.494446,-4.386708 c 0.443827,-3.937619 0.141323,-4.772031 -2.954872,-8.150564 -4.110714,-4.485565 -7.254819,-4.323549 -10.116752,0.521318 -2.292538,3.880957 -2.398583,12.846093 -0.203988,17.245263 1.483997,2.974744 1.478413,3.46149 -0.07276,6.341838 -1.622321,3.012466 -1.600472,3.227529 0.63508,6.251275 1.988271,2.68928 2.149842,3.494405 1.144185,5.701581 C 77.526958,81.93756 77,84.351107 77,85.887441 c 0,1.571149 -2.158952,6.385495 -4.934335,11.003303 -3.714512,6.180376 -5.105633,9.618986 -5.627256,13.909616 -0.471541,3.87868 -1.902849,7.7852 -4.48002,12.22747 -8.286123,14.2828 -11.906952,25.65801 -11.941025,37.51396 -0.01671,5.81545 0.141857,6.19339 4.232636,10.08822 2.3375,2.22554 8.364516,7.28519 13.393369,11.24367 9.354897,7.36375 12.066599,11.16145 11.001074,15.40684 C 78.120806,199.36685 72.603939,203 69.959517,203 c -0.534946,0 -2.906493,-3.0375 -5.270104,-6.75 z M 78.715608,59.095708 c -2.14001,-3.622748 -2.198253,-7.470206 -0.144179,-9.524279 3.012551,-3.012552 6.139922,-1.074028 8.202006,5.084074 0.919638,2.746361 0.767567,3.427075 -1.172848,5.25 -3.030344,2.846861 -4.851468,2.632665 -6.884979,-0.809795 z m 28.813662,0.748658 c -2.32411,-1.828144 -2.65493,-2.682564 -2.1776,-5.624029 C 105.9951,50.255317 108.53296,47 110.98067,47 c 2.6564,0 6.35266,4.642516 6.35266,7.978954 0,3.377168 -2.77841,7.021046 -5.35346,7.021046 -0.94058,0 -2.94335,-0.970035 -4.4506,-2.155634 z"
       id="path2958" />
    <path
       style="fill:#6b4e16"
       d="m 56,236.37686 c -2.475,-0.88983 -5.4,-2.28721 -6.5,-3.10529 -1.934649,-1.43881 -1.918312,-1.46938 0.5,-0.9354 8.594325,1.89766 12.518558,1.77639 16.991929,-0.52511 2.47056,-1.27109 5.549496,-3.88606 6.842079,-5.81106 1.992929,-2.968 2.259047,-4.29614 1.750776,-8.73775 l -0.599376,-5.23775 4.114984,2.14485 c 5.182113,2.70106 16.562819,3.54761 25.144238,1.87033 8.72232,-1.70481 17.90128,-6.52959 25.28314,-13.28968 3.45338,-3.1625 6.57155,-5.75 6.92927,-5.75 0.35772,0 0.34102,4.88926 -0.0371,10.86502 -0.37812,5.97576 -0.37505,12.94862 0.007,15.49525 1.42834,9.52479 8.85934,13.95023 19.06152,11.35183 5.84036,-1.48749 6.37609,-0.38903 0.92175,1.88993 -7.56295,3.16001 -18.84168,0.33152 -21.84621,-5.4786 -2.15271,-4.16289 -5.12392,-4.62613 -29.56383,-4.60936 l -20.5,0.0141 -5.5,3.27635 c -3.025,1.80199 -6.625,4.14564 -8,5.20811 -3.553365,2.7457 -9.622319,3.29767 -15,1.36425 z M 64.689413,196.25 c -2.363611,-3.7125 -6.06108,-9.675 -8.216597,-13.25 -2.155517,-3.575 -6.247131,-8.90427 -9.092476,-11.84283 -5.027158,-5.19184 -5.310509,-5.33313 -10.026847,-5 L 32.5,166.5 32.198784,161.28008 c -0.268387,-4.651 0.246333,-6.23563 4.722546,-14.53898 2.76307,-5.12548 6.636705,-14.25152 8.608079,-20.28008 4.134975,-12.64496 3.76735,-12.0053 14.735871,-25.64048 C 72.519299,85.587334 72.352764,86.241755 70.837291,59.276552 69.255479,31.130951 70.397844,24.311159 78.17868,15.449276 c 1.727704,-1.967746 5.431789,-4.78632 8.2313,-6.2634981 4.516846,-2.3833391 6.159791,-2.680445 14.59002,-2.63842 8.44271,0.042087 10.23167,0.3879436 16.07427,3.1076064 7.64065,3.5566347 12.94658,8.4792727 16.32447,15.1452067 3.70342,7.308359 4.62759,12.044587 5.55806,28.484227 0.63359,11.194309 1.39387,16.617442 2.87672,20.519825 3.63898,9.576576 12.23883,23.839408 19.76389,32.778337 6.13218,7.28435 8.06741,10.50573 11.34068,18.87768 2.17072,5.55199 4.72438,14.0522 5.6748,18.88935 1.49619,7.61486 1.56683,10.00559 0.52651,17.8192 -0.97976,7.35884 -1.8331,10.01172 -4.62368,14.37409 -4.3602,6.81609 -7.37513,8.747 -14.45751,9.25929 -4.95535,0.35844 -6.07287,0.0893 -8.57873,-2.06616 -2.42799,-2.08847 -2.98074,-3.48166 -3.51411,-8.85715 -0.34811,-3.50837 -0.25773,-7.72589 0.20085,-9.37226 1.2526,-4.49701 0.94023,-19.01864 -0.59412,-27.62053 -1.5841,-8.88078 -4.20577,-15.24933 -8.94751,-21.73527 -1.91785,-2.62332 -4.08635,-7.34586 -4.97427,-10.83295 -1.56191,-6.133986 -11.01833,-26.809223 -12.75206,-27.880731 -0.52811,-0.326387 -0.48695,-1.337144 0.099,-2.432066 1.29948,-2.428104 1.28021,-6.618011 -0.0418,-9.088211 -0.78288,-1.462811 -0.65763,-2.504016 0.5,-4.156765 3.95117,-5.641094 0.19482,-19.528584 -6.09325,-22.527157 -4.05685,-1.934574 -7.50725,-1.053157 -11.93327,3.048394 -2.74727,2.545861 -3.508612,4.054835 -3.642154,7.218686 -0.09286,2.2 0.190263,4.7875 0.629154,5.75 0.70749,1.55152 0.17286,1.75 -4.713835,1.75 l -5.511832,0 0.514684,-3.837253 C 92.136679,42.488756 80.565755,35.39825 75.611131,43.91343 c -3.3144,5.696237 -2.348688,18.596168 1.585151,21.174374 0.49328,0.323292 0.127061,1.929123 -0.81382,3.568514 -1.660522,2.893294 -1.640099,3.076195 0.696394,6.236471 2.230268,3.016598 2.279052,3.327411 0.664116,4.231175 C 76.545842,79.793912 76,81.332719 76,84.037656 c 0,2.891986 -1.31682,6.234827 -4.956564,12.582592 -2.902,5.061132 -5.422216,10.972942 -6.079934,14.262032 -0.617854,3.08975 -3.129828,9.54794 -5.582164,14.35155 -6.736226,13.19484 -9.206193,20.64038 -10.263556,30.93877 -0.784139,7.63728 -0.695831,9.73566 0.487351,11.58049 0.79476,1.2392 6.788167,6.49807 13.318682,11.68638 16.852687,13.389 18.444748,16.40896 11.096057,21.04799 C 71.830801,201.86935 69.802851,203 69.513316,203 c -0.289536,0 -2.460292,-3.0375 -4.823903,-6.75 z M 174.21667,166.81667 c -1.52752,-1.52752 -2.65464,-0.40039 -1.80743,1.80742 0.50024,1.30358 0.93392,1.43275 1.82354,0.54313 0.88963,-0.88963 0.88579,-1.44865 -0.0161,-2.35055 z M 45.44316,157.75 c -0.945423,-3.0757 -1.40832,-3.42441 -2.405013,-1.81172 C 41.920352,157.74691 42.82799,160 44.674376,160 c 1.052745,0 1.267342,-0.62806 0.768784,-2.25 z M 153,130 c 0,-0.55 -0.45,-1 -1,-1 -0.55,0 -1,0.45 -1,1 0,0.55 0.45,1 1,1 0.55,0 1,-0.45 1,-1 z M 138.80545,82.35758 C 139.13347,80.056908 134.53273,76 131.59563,76 c -2.13984,0 -2.00433,1.817384 0.43367,5.816201 2.35518,3.862978 6.25812,4.174802 6.77615,0.541379 z M 118.4349,24.024751 C 120.24032,23.338333 121,22.312189 121,20.559935 c 0,-2.636734 -3.17191,-5.091682 -5.44946,-4.217702 -1.87262,0.71859 -2.85888,5.58131 -1.47115,7.25342 1.38675,1.670943 1.15044,1.647662 4.35551,0.429098 z m -38.820959,34.57412 c -1.835201,-3.8674 -1.976242,-5.477702 -0.661778,-7.555709 0.74659,-1.180268 1.597973,-0.739606 4.484687,2.321202 4.105043,4.352614 4.202946,4.746653 1.734409,6.980648 -2.660055,2.407318 -3.748688,2.065263 -5.557318,-1.746141 z m 28.608569,1.844425 c -2.45051,-1.7164 -2.8902,-5.306281 -1.07281,-8.759037 1.86394,-3.54119 3.01818,-3.670225 6.01588,-0.67253 3.20168,3.201682 3.54159,5.533634 1.27772,8.765765 -1.83968,2.626501 -3.21183,2.773361 -6.22079,0.665802 z"
       id="path2956" />
    <path
       style="fill:#0b0a0a"
       d="m 77.649802,229.31647 c -0.318689,-0.31869 -0.09566,-1.48337 0.495611,-2.58818 0.639855,-1.19558 0.807086,-4.02872 0.413108,-6.99867 -0.645879,-4.86887 -0.606097,-4.97228 1.639771,-4.26264 1.265939,0.40001 6.371996,0.95822 11.346793,1.24047 14.738525,0.83621 25.598025,-2.99391 37.645545,-13.27749 2.84043,-2.42454 5.35951,-4.21316 5.59796,-3.9747 0.23846,0.23846 -0.10542,5.77467 -0.76417,12.30271 -0.65875,6.52803 -1.04623,12.74055 -0.86107,13.80559 0.30497,1.75423 -0.13384,1.88939 -4.66335,1.43644 -2.75,-0.275 -14.02683,-0.49539 -25.05962,-0.48975 -17.126656,0.009 -20.436222,0.25701 -22.635379,1.69795 -1.41667,0.92824 -2.836509,1.42696 -3.155199,1.10827 z M 65.312176,194.92239 C 47.549868,166.60459 44.53235,163.69377 34.5,165.19977 c -1.719746,0.25816 -2.041866,-0.34472 -2.29877,-4.30235 -0.25625,-3.94754 0.479229,-6.08232 5.167846,-15 3.006639,-5.71858 6.824849,-14.7876 8.484911,-20.15337 C 49.116101,115.20002 49.934418,113.80426 60.361208,101 64.168162,96.325 68.387307,90.115574 69.737085,87.201276 l 2.454142,-5.298723 -1.22123,-21.526479 C 69.707757,38.126707 69.946471,32.740862 72.542802,24.890709 77.2381,10.694206 93.373353,3.1619389 109.97708,7.4156174 130.29317,12.620356 139,27.154281 139,55.862261 c 0,9.749675 1.99728,17.435108 7.17549,27.610913 5.07909,9.981019 8.4696,15.003886 16.49552,24.437276 5.07346,5.96317 7.06138,9.38097 10.17865,17.5 5.42678,14.13421 6.61832,19.6956 6.56041,30.62006 -0.0423,7.98257 -0.43863,10.30761 -2.44003,14.31502 -3.94558,7.90027 -8.38363,12.36743 -13.33624,13.42372 -9.40482,2.00585 -14.78735,-1.38574 -14.58537,-9.19042 0.0581,-2.24336 -0.0817,-11.50383 -0.31069,-20.57883 -0.48825,-19.35418 -2.1583,-25.99685 -9.16158,-36.44058 -2.46343,-3.67362 -4.89736,-8.80643 -5.58787,-11.78401 -0.67286,-2.90147 -3.53131,-9.975695 -6.3521,-15.720488 -4.59029,-9.348521 -5.14421,-11.185725 -5.27623,-17.5 C 122.27883,68.674715 122.15998,64.825 122.09585,64 c -0.0641,-0.825 0.16461,-4.037071 0.50831,-7.137935 0.75086,-6.774203 -0.65203,-11.631293 -4.57132,-15.826909 -3.23197,-3.459833 -6.47894,-3.866366 -11.57315,-1.449003 -4.39778,2.086885 -6.637705,5.687397 -6.986609,11.230472 l -0.2843,4.516708 -3.843955,0 c -3.84263,0 -3.844196,-0.0017 -4.542833,-4.916666 C 89.943095,44.374236 84.445684,38.447963 80.70629,39.533381 75.038147,41.178649 72.038571,49.434991 73.997261,58 c 1.38463,6.054743 1.44869,7.90726 0.442259,12.789447 -0.467759,2.269094 -0.221459,3.820042 0.79403,5 2.08616,2.424035 0.929723,12.760434 -1.871218,16.72521 -3.749588,5.3076 -8.099288,14.868963 -8.864366,19.485343 -0.410185,2.475 -3.001848,9 -5.759251,14.5 -6.77302,13.50967 -8.67207,19.38517 -9.696457,30 -0.691547,7.16591 -0.581879,9.44935 0.538148,11.20497 0.773682,1.21274 7.023617,6.73431 13.888745,12.27015 C 78.76415,192.30859 80.323675,194.67632 76,199 c -3.697729,3.69773 -6.475489,2.63796 -10.687824,-4.07761 z M 175,168.46862 c 0,-1.51309 -2.63652,-3.16543 -3.56667,-2.23529 -0.26422,0.26423 -0.19667,1.21982 0.15012,2.12354 0.79561,2.07333 3.41655,2.15905 3.41655,0.11175 z M 45.052122,156.27713 c -1.292461,-2.77463 -1.294545,-2.77513 -2.315069,-0.55093 -0.745015,1.62374 -0.669681,2.65005 0.27837,3.79238 2.09276,2.52162 3.602197,0.11932 2.036699,-3.24145 z M 153.00074,128.60074 c -0.7787,-0.7787 -1.33537,-0.67733 -1.9764,0.35987 -1.25637,2.03286 -0.13681,3.37762 1.60707,1.93033 1.044,-0.86644 1.14803,-1.5115 0.36933,-2.2902 z M 138.5,82.039833 c 0,-1.678016 -1.07231,-3.182794 -3.37282,-4.73311 -5.25756,-3.543068 -6.71441,-1.422372 -3.09788,4.509478 2.49436,4.091268 6.4707,4.228693 6.4707,0.223632 z M 120.13922,23.06265 c 1.91968,-1.575369 2.15458,-2.276032 1.2572,-3.75 -1.64513,-2.702133 -6.27477,-4.118658 -7.43999,-2.276398 -1.07708,1.702924 -1.26067,6.326174 -0.28976,7.297081 1.23876,1.238762 4.09884,0.677275 6.47255,-1.270683 z M 109.25,59.968838 C 105.53647,58.47618 106.27684,49 110.10699,49 111.17242,49 112,49.696689 112,50.59362 c 0,0.87649 0.9,1.828975 2,2.116631 2.54559,0.665688 2.64196,4.398812 0.17126,6.634761 -2.06418,1.868061 -1.88293,1.845085 -4.92126,0.623826 z M 78.91979,57.289033 c -1.038301,-2.730939 -0.507222,-7.289058 0.849262,-7.289004 0.402021,1.7e-5 2.005237,1.59708 3.562702,3.54903 2.283074,2.861348 2.598428,3.83014 1.627555,4.999971 -1.949691,2.349233 -4.90142,1.733428 -6.039519,-1.259997 z"
       id="path2954" />
  </g>
</svg>
