<?xml version="1.0" encoding="UTF-8" standalone="no"?>
<!-- Created with Inkscape (http://www.inkscape.org/) -->

<svg
   xmlns:dc="http://purl.org/dc/elements/1.1/"
   xmlns:cc="http://creativecommons.org/ns#"
   xmlns:rdf="http://www.w3.org/1999/02/22-rdf-syntax-ns#"
   xmlns:svg="http://www.w3.org/2000/svg"
   xmlns="http://www.w3.org/2000/svg"
   xmlns:sodipodi="http://sodipodi.sourceforge.net/DTD/sodipodi-0.dtd"
   xmlns:inkscape="http://www.inkscape.org/namespaces/inkscape"
   id="svg2"
   version="1.1"
   inkscape:version="0.47 r22583"
   width="239"
   height="211"
   sodipodi:docname="win.jpeg">
  <metadata
     id="metadata8">
    <rdf:RDF>
      <cc:Work
         rdf:about="">
        <dc:format>image/svg+xml</dc:format>
        <dc:type
           rdf:resource="http://purl.org/dc/dcmitype/StillImage" />
        <dc:title></dc:title>
      </cc:Work>
    </rdf:RDF>
  </metadata>
  <defs
     id="defs6">
    <inkscape:perspective
       sodipodi:type="inkscape:persp3d"
       inkscape:vp_x="0 : 0.5 : 1"
       inkscape:vp_y="0 : 1000 : 0"
       inkscape:vp_z="1 : 0.5 : 1"
       inkscape:persp3d-origin="0.5 : 0.33333333 : 1"
       id="perspective10" />
  </defs>
  <sodipodi:namedview
     pagecolor="#ffffff"
     bordercolor="#666666"
     borderopacity="1"
     objecttolerance="10"
     gridtolerance="10"
     guidetolerance="10"
     inkscape:pageopacity="0"
     inkscape:pageshadow="2"
     inkscape:window-width="640"
     inkscape:window-height="492"
     id="namedview4"
     showgrid="false"
     inkscape:zoom="1.1184834"
     inkscape:cx="119.5"
     inkscape:cy="103.71186"
     inkscape:window-x="0"
     inkscape:window-y="27"
     inkscape:window-maximized="0"
     inkscape:current-layer="svg2" />
  <g
     id="g2818">
    <path
       style="fill:#708dfa"
       d="M 133.46978,208.95786 C 118.62125,207.01622 97,196.68141 97,191.52554 c 0,-1.28605 2.42415,-10.5929 5.387,-20.6819 2.96285,-10.089 7.49326,-25.70684 10.06759,-34.70632 C 118.29119,115.7334 118.57495,115 120.63277,115 c 0.92524,0 6.67388,2.45883 12.77475,5.46406 20.11302,9.9075 36.48362,11.00708 62.59248,4.20422 11.48075,-2.9914 13.71168,-3.31178 14.91521,-2.14198 1.21664,1.18255 -0.0319,6.3983 -8.89909,37.17462 -5.67287,19.68949 -10.53001,36.60692 -10.79366,37.59429 -0.65064,2.43663 -6.13174,5.07657 -16.80115,8.09216 -15.14317,4.28006 -27.37162,5.34624 -40.95153,3.57049 z M 78.5,182.95076 C 59.290973,172.07168 41.188385,170.64937 17.189109,178.1336 3.8223608,182.30205 2.1533145,182.56311 1.4011649,180.60304 1.0591334,179.71172 5.6635081,161.82499 11.633109,140.85476 20.036624,111.33458 22.939913,102.43273 24.493464,101.42329 27.603334,99.402607 42.435272,95.385127 53.802965,93.484313 66.562177,91.35082 79.820968,91.862992 89,94.843933 c 9.359809,3.039649 21.42459,10.126897 21.80698,12.810137 0.36107,2.53363 -20.389164,73.79734 -22.448437,77.09593 -0.772557,1.2375 -1.731775,2.23093 -2.131596,2.20762 C 85.827126,186.9343 82.35,185.13122 78.5,182.95076 z M 156,118.54908 c -8.11895,-1.74031 -12.85592,-3.44174 -21.05284,-7.56182 C 125.9901,106.48512 123,104.1952 123,101.83775 c 0,-1.71661 14.0099,-51.635518 19.71165,-70.234901 2.27394,-7.417684 4.15933,-8.786205 8.5575,-6.211505 16.62962,9.735011 27.10225,12.900784 42.25057,12.771921 10.93309,-0.09301 18.22743,-1.494936 31.91787,-6.134438 9.42691,-3.194651 12.07835,-3.621064 13.02199,-2.09423 0.71683,1.15986 -1.98032,11.303604 -13.1791,49.565403 l -8.78065,30 -7.99992,3.17475 C 192.7456,118.92681 169.76054,121.49866 156,118.54908 z M 106.0093,91.846851 C 85.642527,80.117059 64.256928,78.966321 38.112497,88.193391 27.515704,91.933283 26.373143,91.32125 28.41183,82.997056 31.040016,72.265871 49.050255,11.549745 49.839325,10.760675 52.093477,8.5065232 63.139557,5.3433203 84.5,0.83509525 c 5.932082,-1.25199467 17.70126,-0.50417791 25.82643,1.64101845 7.19111,1.8985846 19.27048,7.7068793 23.67513,11.3840453 l 3.29005,2.746657 -7.64514,26.446592 C 116.39171,88.905138 114.60464,94.454034 113,94.740921 c -0.825,0.147498 -3.97082,-1.154833 -6.9907,-2.89407 z"
       id="path2832" />
    <path
       style="fill:#e2a314"
       d="M 133.46978,208.95786 C 118.62125,207.01622 97,196.68141 97,191.52554 c 0,-1.28605 2.42415,-10.5929 5.387,-20.6819 2.96285,-10.089 7.49326,-25.70684 10.06759,-34.70632 C 118.29119,115.7334 118.57495,115 120.63277,115 c 0.92524,0 6.67388,2.45883 12.77475,5.46406 20.11302,9.9075 36.48362,11.00708 62.59248,4.20422 11.48075,-2.9914 13.71168,-3.31178 14.91521,-2.14198 1.21664,1.18255 -0.0319,6.3983 -8.89909,37.17462 -5.67287,19.68949 -10.53001,36.60692 -10.79366,37.59429 -0.65064,2.43663 -6.13174,5.07657 -16.80115,8.09216 -15.14317,4.28006 -27.37162,5.34624 -40.95153,3.57049 z M 78.879827,181.93419 C 75.276946,179.82338 68.767579,176.86351 64.414567,175.3567 57.619432,173.00454 54.873447,172.61101 45,172.57439 c -12.133418,-0.045 -19.296852,1.23649 -32.925152,5.89015 -8.8242162,3.0132 -9.0758803,3.03499 -9.0712316,0.78546 0.00397,-1.92344 19.4116996,-70.38067 20.9791076,-74 0.535919,-1.2375 1.710121,-2.25 2.609337,-2.25 1.855116,0 1.676791,1.88395 -1.041204,11 -0.901918,3.025 -2.545656,8.65 -3.652751,12.5 -1.107095,3.85 -2.466991,8.575 -3.021991,10.5 -0.555001,1.925 -1.374833,5.075 -1.821849,7 -0.447016,1.925 -1.542096,5.17305 -2.433511,7.21788 -0.891415,2.04484 -1.633331,4.74484 -1.648702,6 -0.01537,1.25517 -1.315465,6.03837 -2.889096,10.62934 l -2.8611491,8.34722 2.639096,-0.45666 c 1.4515031,-0.25116 7.2430871,-1.4267 12.8701861,-2.6123 11.017613,-2.32136 28.176168,-3.16041 37.188624,-1.81852 4.541757,0.67623 5.235098,0.5845 4.280059,-0.56625 -0.86704,-1.04472 -0.674099,-2.673 0.806581,-6.80695 1.07043,-2.98857 3.07121,-9.70876 4.446177,-14.93376 4.074717,-15.48429 9.090873,-32.95134 11.909931,-41.47226 C 82.813108,103.143 84,98.70542 84,97.666451 c 0,-1.628443 0.517309,-1.801949 3.75,-1.257757 5.877949,0.989496 22.25,9.498626 22.25,11.564106 0,1.29089 -13.586562,48.63249 -21.577286,75.18482 -0.885736,2.94321 -2.863834,2.68961 -9.542887,-1.22343 z M 156,118.55302 c -8.12533,-1.7466 -12.86254,-3.44901 -21.05284,-7.56576 C 125.9901,106.48512 123,104.1952 123,101.83775 c 0,-1.71661 14.0099,-51.635518 19.71165,-70.234901 2.27394,-7.417684 4.15933,-8.786205 8.5575,-6.211505 16.62962,9.735011 27.10225,12.900784 42.25057,12.771921 10.93309,-0.09301 18.22743,-1.494936 31.91787,-6.134438 9.43366,-3.196941 12.07822,-3.621274 13.02468,-2.089876 0.65818,1.064954 -1.39913,9.102625 -8.59022,33.561049 -2.74902,9.35 -6.55243,22.4 -8.45203,29 -5.18719,18.02247 -4.52848,17.01143 -13.27857,20.38095 -15.66656,6.03292 -38.77059,8.54624 -52.14145,5.67207 z M 106.0093,91.846851 C 85.642527,80.117059 64.256928,78.966321 38.112497,88.193391 27.515704,91.933283 26.373143,91.32125 28.41183,82.997056 31.040016,72.265871 49.050255,11.549745 49.839325,10.760675 52.093477,8.5065232 63.139557,5.3433203 84.5,0.83509525 c 5.932082,-1.25199467 17.70126,-0.50417791 25.82643,1.64101845 7.19111,1.8985846 19.27048,7.7068793 23.67513,11.3840453 l 3.29005,2.746657 -7.64514,26.446592 C 116.39171,88.905138 114.60464,94.454034 113,94.740921 c -0.825,0.147498 -3.97082,-1.154833 -6.9907,-2.89407 z"
       id="path2830" />
    <path
       style="fill:#90d11b"
       d="m 136.5,209.34199 c -9.78468,-1.54007 -16.88863,-3.50253 -19.16735,-5.29497 C 115.90135,202.92116 113.84146,202 112.75512,202 c -2.4842,0 -13.807353,-5.97254 -14.437773,-7.61539 -0.258127,-0.67267 0.20409,-2.27189 1.027148,-3.55382 0.823055,-1.28194 2.920225,-7.50579 4.660385,-13.83079 1.74015,-6.325 3.99648,-13.975 5.01408,-17 1.01759,-3.025 2.83729,-9.1 4.04377,-13.5 1.20649,-4.4 3.20905,-11.375 4.45015,-15.5 1.24109,-4.125 2.56091,-8.92491 2.93293,-10.66646 0.37202,-1.74155 1.32924,-3.41698 2.12715,-3.72316 1.90277,-0.73017 6.42704,1.35954 6.42704,2.96858 0,0.69185 1.6875,2.27277 3.75,3.51314 2.0625,1.24037 3.93474,2.39931 4.16054,2.57543 0.22579,0.17611 -0.34729,1.15759 -1.27351,2.18105 -0.92622,1.02347 -2.36889,5.18873 -3.20592,9.25613 -0.83704,4.06741 -2.85146,10.71316 -4.4765,14.76833 -1.62503,4.05517 -2.95461,8.3553 -2.95461,9.55583 0,1.9936 -2.44296,10.59127 -5.13478,18.07113 -0.59379,1.65 -1.50152,5.025 -2.01719,7.5 -0.51566,2.475 -1.19349,5.7375 -1.50629,7.25 -0.31281,1.5125 -1.19266,2.75 -1.95524,2.75 -0.76257,0 -1.3865,0.43963 -1.3865,0.97695 0,1.5926 4.17238,3.8607 11.99922,6.52278 15.56583,5.29428 41.32851,2.51599 58.6603,-6.32603 3.99945,-2.04037 4.11309,-2.25057 7.23039,-13.37332 11.24187,-40.11192 17.94387,-62.24497 18.94959,-62.58021 2.58118,-0.8604 2.05273,3.23929 -2.37058,18.391 -2.55118,8.73886 -6.60133,22.86383 -9.00033,31.38883 -2.39899,8.525 -5.1901,18.2 -6.20245,21.5 l -1.84065,6 -6.96274,2.65011 c -10.22362,3.89124 -17.2672,5.80252 -23.46275,6.36664 -10.33409,0.94094 -20.49738,1.29785 -23.5,0.82524 z M 78.879827,181.93419 C 75.276946,179.82338 68.767579,176.86351 64.414567,175.3567 57.619432,173.00454 54.873447,172.61101 45,172.57439 c -12.133418,-0.045 -19.296852,1.23649 -32.925152,5.89015 -8.8242162,3.0132 -9.0758803,3.03499 -9.0712316,0.78546 0.00397,-1.92344 19.4116996,-70.38067 20.9791076,-74 0.535919,-1.2375 1.710121,-2.25 2.609337,-2.25 1.855116,0 1.676791,1.88395 -1.041204,11 -0.901918,3.025 -2.545656,8.65 -3.652751,12.5 -1.107095,3.85 -2.466991,8.575 -3.021991,10.5 -0.555001,1.925 -1.374833,5.075 -1.821849,7 -0.447016,1.925 -1.542096,5.17305 -2.433511,7.21788 -0.891415,2.04484 -1.633331,4.74484 -1.648702,6 -0.01537,1.25517 -1.315465,6.03837 -2.889096,10.62934 l -2.8611491,8.34722 2.639096,-0.45666 c 1.4515031,-0.25116 7.2430871,-1.4267 12.8701861,-2.6123 11.017613,-2.32136 28.176168,-3.16041 37.188624,-1.81852 4.541757,0.67623 5.235098,0.5845 4.280059,-0.56625 -0.86704,-1.04472 -0.674099,-2.673 0.806581,-6.80695 1.07043,-2.98857 3.07121,-9.70876 4.446177,-14.93376 4.074717,-15.48429 9.090873,-32.95134 11.909931,-41.47226 C 82.813108,103.143 84,98.70542 84,97.666451 c 0,-1.628443 0.517309,-1.801949 3.75,-1.257757 5.877949,0.989496 22.25,9.498626 22.25,11.564106 0,1.29089 -13.586562,48.63249 -21.577286,75.18482 -0.885736,2.94321 -2.863834,2.68961 -9.542887,-1.22343 z M 156,118.55302 c -8.12533,-1.7466 -12.86254,-3.44901 -21.05284,-7.56576 C 125.9901,106.48512 123,104.1952 123,101.83775 c 0,-1.71661 14.0099,-51.635518 19.71165,-70.234901 2.27394,-7.417684 4.15933,-8.786205 8.5575,-6.211505 16.62962,9.735011 27.10225,12.900784 42.25057,12.771921 10.93309,-0.09301 18.22743,-1.494936 31.91787,-6.134438 9.43366,-3.196941 12.07822,-3.621274 13.02468,-2.089876 0.65818,1.064954 -1.39913,9.102625 -8.59022,33.561049 -2.74902,9.35 -6.55243,22.4 -8.45203,29 -5.18719,18.02247 -4.52848,17.01143 -13.27857,20.38095 -15.66656,6.03292 -38.77059,8.54624 -52.14145,5.67207 z M 103.15779,89.531712 C 82.898611,78.937625 62.547624,78.283056 37.379014,87.416004 33.462472,88.837202 29.924892,90 29.517724,90 28.47045,90 29.658331,84.34216 33.501047,71.027568 47.054717,24.065571 50.307913,13.362444 51.333761,12.357323 51.975192,11.728851 53.5125,10.911027 54.75,10.539936 57.439972,9.7332897 57.799735,11.840035 55.560334,15.285183 54.768518,16.503332 53.364634,20.875 52.440593,25 c -0.924041,4.125 -2.159125,8.4 -2.74463,9.5 -0.585505,1.1 -1.39716,3.8 -1.803678,6 -1.120946,6.066347 -4.616091,18.116342 -6.005106,20.703433 -1.487149,2.769868 -6.084643,21.921147 -5.423123,22.590511 0.159775,0.16167 4.733224,-0.601604 10.163222,-1.696163 C 52.057275,81.003222 62.0125,79.794699 68.75,79.412174 75.4875,79.029649 81,78.402654 81,78.018852 81,77.63505 79.875,76.808446 78.5,76.181954 75.483411,74.807504 75.459947,74.267296 78.057754,66 c 1.123361,-3.575 2.91758,-9.729901 3.987152,-13.677557 1.069572,-3.947657 3.238108,-11.147657 4.818968,-16 C 88.444733,31.470099 90.72586,23.675 91.933043,19 93.140227,14.325 94.583923,8.7566951 95.141257,6.6259891 l 1.013335,-3.8740108 7.672708,0.4772652 c 11.84134,0.7365674 31.04738,9.1659635 31.98571,14.0383055 0.29649,1.539541 -18.43634,67.668468 -20.95756,73.982451 -0.60395,1.5125 -1.606,2.726169 -2.22677,2.697043 -0.62077,-0.02913 -4.88268,-2.016026 -9.47089,-4.415331 z M 94.75,1.294267 c 1.2375,-0.2383529 3.2625,-0.2383529 4.5,0 1.2375,0.2383529 0.225,0.4333689 -2.25,0.4333689 -2.475,0 -3.4875,-0.195016 -2.25,-0.4333689 z"
       id="path2828" />
    <path
       style="fill:#4257df"
       d="m 138.5,208.03731 c -4.01214,-0.58024 -2.78957,-0.75414 6.18795,-0.88021 14.36791,-0.20175 27.82674,-3.29773 38.905,-8.94944 l 3.99674,-2.03898 5.29513,-18.33434 c 2.91232,-10.08389 7.61505,-26.54753 10.45052,-36.58588 2.83547,-10.03835 5.60748,-18.08875 6.16003,-17.88977 0.55255,0.19898 0.88038,1.43717 0.72852,2.75154 -0.54383,4.70687 -20.29141,71.38564 -21.49491,72.57873 -1.65313,1.63883 -18.10319,6.94366 -25.37905,8.18425 -8.72418,1.48755 -19.21523,1.979 -24.84993,1.1641 z m -17.0239,-3.40297 c -7.49127,-2.42765 -19.07023,-7.92384 -21.36489,-10.14129 -1.18455,-1.14469 -1.167306,-1.90463 0.11726,-5.16755 0.82833,-2.10403 2.72645,-8.3255 4.21805,-13.8255 1.49159,-5.5 3.54688,-12.475 4.5673,-15.5 1.02042,-3.025 2.84243,-9.1 4.04891,-13.5 1.20649,-4.4 3.20905,-11.375 4.45015,-15.5 1.24109,-4.125 2.56917,-8.9625 2.95128,-10.75 0.40123,-1.87694 1.31554,-3.25 2.16415,-3.25 0.80818,0 4.25992,1.91208 7.67055,4.24908 3.41063,2.33699 6.38588,4.35923 6.61168,4.49387 0.22579,0.13463 -0.34729,1.08217 -1.27351,2.10563 -0.92622,1.02347 -2.36889,5.18873 -3.20592,9.25613 -0.83704,4.06741 -2.85146,10.71316 -4.4765,14.76833 -1.62503,4.05517 -2.95461,8.3553 -2.95461,9.55583 0,1.9936 -2.44296,10.59127 -5.13478,18.07113 -0.59379,1.65 -1.50152,5.025 -2.01719,7.5 -0.51566,2.475 -1.19349,5.7375 -1.50629,7.25 -0.31281,1.5125 -1.19266,2.75 -1.95524,2.75 -0.76257,0 -1.3865,0.3949 -1.3865,0.87756 0,1.65831 3.11129,3.45309 10.7986,6.22926 9.26377,3.3455 7.56438,3.73148 -2.3225,0.52752 z M 78.879827,181.93419 C 75.276946,179.82338 68.767579,176.86351 64.414567,175.3567 57.619432,173.00454 54.873447,172.61101 45,172.57439 c -12.133418,-0.045 -19.296852,1.23649 -32.925152,5.89015 -8.8242162,3.0132 -9.0758803,3.03499 -9.0712316,0.78546 0.00397,-1.92344 19.4116996,-70.38067 20.9791076,-74 0.535919,-1.2375 1.710121,-2.25 2.609337,-2.25 1.855116,0 1.676791,1.88395 -1.041204,11 -0.901918,3.025 -2.545656,8.65 -3.652751,12.5 -1.107095,3.85 -2.466991,8.575 -3.021991,10.5 -0.555001,1.925 -1.374833,5.075 -1.821849,7 -0.447016,1.925 -1.542096,5.17305 -2.433511,7.21788 -0.891415,2.04484 -1.633331,4.74484 -1.648702,6 -0.01537,1.25517 -1.315465,6.03837 -2.889096,10.62934 l -2.8611491,8.34722 2.639096,-0.45666 c 1.4515031,-0.25116 7.2430871,-1.4267 12.8701861,-2.6123 11.017613,-2.32136 28.176168,-3.16041 37.188624,-1.81852 4.541757,0.67623 5.235098,0.5845 4.280059,-0.56625 -0.86704,-1.04472 -0.674099,-2.673 0.806581,-6.80695 1.07043,-2.98857 3.07121,-9.70876 4.446177,-14.93376 4.074717,-15.48429 9.090873,-32.95134 11.909931,-41.47226 C 82.813108,103.143 84,98.70542 84,97.666451 c 0,-1.628443 0.517309,-1.801949 3.75,-1.257757 5.877949,0.989496 22.25,9.498626 22.25,11.564106 0,1.29089 -13.586562,48.63249 -21.577286,75.18482 -0.885736,2.94321 -2.863834,2.68961 -9.542887,-1.22343 z M 155.85633,117.48873 C 144.78944,115.28434 124,105.59531 124,102.64191 c 0,-3.496232 21.93409,-76.197754 23.23683,-77.0195 1.07649,-0.679036 3.52174,0.306794 8.87454,3.577874 6.30572,3.853401 15.61377,8.136457 22.13863,10.186985 2.63991,0.829629 2.22273,6.511522 -1.28897,17.555473 -3.02056,9.499332 -4.36439,14.074392 -7.50693,25.557258 -0.90312,3.3 -2.24976,7.575 -2.99254,9.5 -0.74278,1.925 -2.12842,7.325 -3.07921,12 -1.02847,5.05702 -2.34943,8.87054 -3.26117,9.41478 -2.65298,1.58363 1.50531,2.43842 12.23448,2.51493 C 186.77609,116.03255 203,111.24873 203,106.89385 c 0,-1.03724 0.84252,-4.47518 1.87228,-7.639868 C 205.90203,96.089292 207.97621,88.775 209.48156,83 c 1.50535,-5.775 3.31572,-12.075 4.02304,-14 0.70732,-1.925 2.70914,-8.675 4.4485,-15 4.7844,-17.397954 5.26714,-18.259572 12.04559,-21.499373 6.90112,-3.298435 9.30018,-2.941038 8.03478,1.196969 C 237.56214,35.238918 232.61964,52.025 227.05015,71 c -5.56949,18.975 -10.34895,35.23843 -10.62103,36.14096 -0.92835,3.07952 -14.93365,7.93848 -29.92912,10.38353 -10.83218,1.76621 -21.66052,1.75357 -30.64367,-0.0358 z M 103.15779,89.531712 C 82.898611,78.937625 62.547624,78.283056 37.379014,87.416004 33.462472,88.837202 29.924892,90 29.517724,90 28.47045,90 29.658331,84.34216 33.501047,71.027568 47.054717,24.065571 50.307913,13.362444 51.333761,12.357323 51.975192,11.728851 53.5125,10.911027 54.75,10.539936 57.439972,9.7332897 57.799735,11.840035 55.560334,15.285183 54.768518,16.503332 53.364634,20.875 52.440593,25 c -0.924041,4.125 -2.159125,8.4 -2.74463,9.5 -0.585505,1.1 -1.39716,3.8 -1.803678,6 -1.120946,6.066347 -4.616091,18.116342 -6.005106,20.703433 -1.487149,2.769868 -6.084643,21.921147 -5.423123,22.590511 0.159775,0.16167 4.733224,-0.601604 10.163222,-1.696163 C 52.057275,81.003222 62.0125,79.794699 68.75,79.412174 75.4875,79.029649 81,78.402654 81,78.018852 81,77.63505 79.875,76.808446 78.5,76.181954 75.483411,74.807504 75.459947,74.267296 78.057754,66 c 1.123361,-3.575 2.91758,-9.729901 3.987152,-13.677557 1.069572,-3.947657 3.238108,-11.147657 4.818968,-16 C 88.444733,31.470099 90.72586,23.675 91.933043,19 93.140227,14.325 94.583923,8.7566951 95.141257,6.6259891 l 1.013335,-3.8740108 7.672708,0.4772652 c 11.84134,0.7365674 31.04738,9.1659635 31.98571,14.0383055 0.29649,1.539541 -18.43634,67.668468 -20.95756,73.982451 -0.60395,1.5125 -1.606,2.726169 -2.22677,2.697043 -0.62077,-0.02913 -4.88268,-2.016026 -9.47089,-4.415331 z M 94.75,1.294267 c 1.2375,-0.2383529 3.2625,-0.2383529 4.5,0 1.2375,0.2383529 0.225,0.4333689 -2.25,0.4333689 -2.475,0 -3.4875,-0.195016 -2.25,-0.4333689 z"
       id="path2826" />
    <path
       style="fill:#d05a0d"
       d="m 138.5,208.03731 c -4.01214,-0.58024 -2.78957,-0.75414 6.18795,-0.88021 14.36791,-0.20175 27.82674,-3.29773 38.905,-8.94944 l 3.99674,-2.03898 5.29513,-18.33434 c 2.91232,-10.08389 7.61505,-26.54753 10.45052,-36.58588 2.83547,-10.03835 5.60748,-18.08875 6.16003,-17.88977 0.55255,0.19898 0.88038,1.43717 0.72852,2.75154 -0.54383,4.70687 -20.29141,71.38564 -21.49491,72.57873 -1.65313,1.63883 -18.10319,6.94366 -25.37905,8.18425 -8.72418,1.48755 -19.21523,1.979 -24.84993,1.1641 z m -17.0239,-3.40297 c -7.49127,-2.42765 -19.07023,-7.92384 -21.36489,-10.14129 -1.18455,-1.14469 -1.167306,-1.90463 0.11726,-5.16755 0.82833,-2.10403 2.72645,-8.3255 4.21805,-13.8255 1.49159,-5.5 3.54688,-12.475 4.5673,-15.5 1.02042,-3.025 2.84243,-9.1 4.04891,-13.5 1.20649,-4.4 3.20905,-11.375 4.45015,-15.5 1.24109,-4.125 2.56917,-8.9625 2.95128,-10.75 0.40123,-1.87694 1.31554,-3.25 2.16415,-3.25 0.80818,0 4.25992,1.91208 7.67055,4.24908 3.41063,2.33699 6.38588,4.35923 6.61168,4.49387 0.22579,0.13463 -0.34729,1.08217 -1.27351,2.10563 -0.92622,1.02347 -2.36889,5.18873 -3.20592,9.25613 -0.83704,4.06741 -2.85146,10.71316 -4.4765,14.76833 -1.62503,4.05517 -2.95461,8.3553 -2.95461,9.55583 0,1.9936 -2.44296,10.59127 -5.13478,18.07113 -0.59379,1.65 -1.50152,5.025 -2.01719,7.5 -0.51566,2.475 -1.19349,5.7375 -1.50629,7.25 -0.31281,1.5125 -1.19266,2.75 -1.95524,2.75 -0.76257,0 -1.3865,0.3949 -1.3865,0.87756 0,1.65831 3.11129,3.45309 10.7986,6.22926 9.26377,3.3455 7.56438,3.73148 -2.3225,0.52752 z m 34.38023,-87.14561 C 144.78944,115.28434 124,105.59531 124,102.64191 c 0,-3.496232 21.93409,-76.197754 23.23683,-77.0195 1.07649,-0.679036 3.52174,0.306794 8.87454,3.577874 6.30572,3.853401 15.61377,8.136457 22.13863,10.186985 2.63991,0.829629 2.22273,6.511522 -1.28897,17.555473 -3.02056,9.499332 -4.36439,14.074392 -7.50693,25.557258 -0.90312,3.3 -2.24976,7.575 -2.99254,9.5 -0.74278,1.925 -2.12842,7.325 -3.07921,12 -1.02847,5.05702 -2.34943,8.87054 -3.26117,9.41478 -2.65298,1.58363 1.50531,2.43842 12.23448,2.51493 C 186.77609,116.03255 203,111.24873 203,106.89385 c 0,-1.03724 0.84252,-4.47518 1.87228,-7.639868 C 205.90203,96.089292 207.97621,88.775 209.48156,83 c 1.50535,-5.775 3.31572,-12.075 4.02304,-14 0.70732,-1.925 2.70914,-8.675 4.4485,-15 4.7844,-17.397954 5.26714,-18.259572 12.04559,-21.499373 6.90112,-3.298435 9.30018,-2.941038 8.03478,1.196969 C 237.56214,35.238918 232.61964,52.025 227.05015,71 c -5.56949,18.975 -10.34895,35.23843 -10.62103,36.14096 -0.92835,3.07952 -14.93365,7.93848 -29.92912,10.38353 -10.83218,1.76621 -21.66052,1.75357 -30.64367,-0.0358 z M 103.15779,89.531712 C 82.898611,78.937625 62.547624,78.283056 37.379014,87.416004 33.462472,88.837202 29.924892,90 29.517724,90 28.47045,90 29.658331,84.34216 33.501047,71.027568 47.054717,24.065571 50.307913,13.362444 51.333761,12.357323 51.975192,11.728851 53.5125,10.911027 54.75,10.539936 57.439972,9.7332897 57.799735,11.840035 55.560334,15.285183 54.768518,16.503332 53.364634,20.875 52.440593,25 c -0.924041,4.125 -2.159125,8.4 -2.74463,9.5 -0.585505,1.1 -1.39716,3.8 -1.803678,6 -1.120946,6.066347 -4.616091,18.116342 -6.005106,20.703433 -1.487149,2.769868 -6.084643,21.921147 -5.423123,22.590511 0.159775,0.16167 4.733224,-0.601604 10.163222,-1.696163 C 52.057275,81.003222 62.0125,79.794699 68.75,79.412174 75.4875,79.029649 81,78.402654 81,78.018852 81,77.63505 79.875,76.808446 78.5,76.181954 75.483411,74.807504 75.459947,74.267296 78.057754,66 c 1.123361,-3.575 2.91758,-9.729901 3.987152,-13.677557 1.069572,-3.947657 3.238108,-11.147657 4.818968,-16 C 88.444733,31.470099 90.72586,23.675 91.933043,19 93.140227,14.325 94.583923,8.7566951 95.141257,6.6259891 l 1.013335,-3.8740108 7.672708,0.4772652 c 11.84134,0.7365674 31.04738,9.1659635 31.98571,14.0383055 0.29649,1.539541 -18.43634,67.668468 -20.95756,73.982451 -0.60395,1.5125 -1.606,2.726169 -2.22677,2.697043 -0.62077,-0.02913 -4.88268,-2.016026 -9.47089,-4.415331 z M 94.75,1.294267 c 1.2375,-0.2383529 3.2625,-0.2383529 4.5,0 1.2375,0.2383529 0.225,0.4333689 -2.25,0.4333689 -2.475,0 -3.4875,-0.195016 -2.25,-0.4333689 z"
       id="path2824" />
    <path
       style="fill:#6ba106"
       d="m 138.5,208.03731 c -4.00843,-0.5797 -2.77665,-0.75426 6.21127,-0.88021 15.01017,-0.21033 27.61996,-3.05318 38.70051,-8.72492 4.37195,-2.23784 4.35145,-2.19385 9.98389,-21.43218 7.45143,-25.45132 10.01442,-34.46661 12.43323,-43.73382 1.4691,-5.62861 3.1211,-10.079 3.6711,-9.88977 0.55,0.18923 0.87575,1.41945 0.72389,2.73382 -0.54383,4.70687 -20.29141,71.38564 -21.49491,72.57873 -1.65313,1.63883 -18.10319,6.94366 -25.37905,8.18425 -8.72418,1.48755 -19.21523,1.979 -24.84993,1.1641 z m -17.0239,-3.40297 c -7.49127,-2.42765 -19.07023,-7.92384 -21.36489,-10.14129 -1.18455,-1.14469 -1.167306,-1.90463 0.11726,-5.16755 0.82833,-2.10403 2.72645,-8.3255 4.21805,-13.8255 1.49159,-5.5 3.54944,-12.475 4.57299,-15.5 1.86305,-5.50605 3.9524,-12.73799 6.62828,-22.9427 0.78495,-2.99349 1.81873,-5.91849 2.2973,-6.5 C 118.60194,129.75915 121,119.3652 121,117.31634 c 0,-1.03205 3.60898,-0.0189 6.00169,1.68487 1.97928,1.40937 2.65586,2.59232 2.28774,4 -0.53033,2.028 1.09768,2.79949 2.18726,1.0365 0.6605,-1.0687 5.52331,0.75033 5.52331,2.0661 0,0.43053 -0.96907,1.46154 -2.15349,2.29114 -1.67027,1.16991 -2.23775,2.77123 -2.52903,7.13647 -0.24446,3.66368 -1.10108,6.60944 -2.45423,8.43968 -1.79382,2.42626 -2.52487,5.253 -2.79941,10.82435 -0.0351,0.7125 -1.17539,2.40701 -2.53395,3.76557 -2.04445,2.04445 -2.50046,3.54449 -2.64619,8.70455 -0.10875,3.85029 -0.885,7.56722 -2.02989,9.71962 -1.0196,1.91686 -1.8607,5.51686 -1.86912,8 -0.0196,5.76781 -1.01385,7.27832 -4.51168,6.85417 -4.02959,-0.48864 -4.22292,1.83159 -0.29552,3.54661 1.98256,0.86575 2.61674,1.48378 1.57251,1.53246 -0.9625,0.0449 -1.75,0.47647 -1.75,0.95913 0,1.71815 3.35413,3.65958 10.87406,6.29407 9.30284,3.25912 7.37761,3.6306 -2.39796,0.46271 z m 34.38023,-87.14561 C 144.78944,115.28434 124,105.59531 124,102.64191 c 0,-3.496232 21.93409,-76.197754 23.23683,-77.0195 1.07649,-0.679036 3.52174,0.306794 8.87454,3.577874 6.30572,3.853401 15.61377,8.136457 22.13863,10.186985 2.63991,0.829629 2.22273,6.511522 -1.28897,17.555473 -3.02056,9.499332 -4.36439,14.074392 -7.50693,25.557258 -0.90312,3.3 -2.24976,7.575 -2.99254,9.5 -0.74278,1.925 -2.12842,7.325 -3.07921,12 -1.02847,5.05702 -2.34943,8.87054 -3.26117,9.41478 -2.65298,1.58363 1.50531,2.43842 12.23448,2.51493 C 186.77609,116.03255 203,111.24873 203,106.89385 c 0,-1.03724 0.84252,-4.47518 1.87228,-7.639868 C 205.90203,96.089292 207.97621,88.775 209.48156,83 c 1.50535,-5.775 3.31572,-12.075 4.02304,-14 0.70732,-1.925 2.70914,-8.675 4.4485,-15 4.7844,-17.397954 5.26714,-18.259572 12.04559,-21.499373 6.90112,-3.298435 9.30018,-2.941038 8.03478,1.196969 C 237.56214,35.238918 232.61964,52.025 227.05015,71 c -5.56949,18.975 -10.34895,35.23843 -10.62103,36.14096 -0.92835,3.07952 -14.93365,7.93848 -29.92912,10.38353 -10.83218,1.76621 -21.66052,1.75357 -30.64367,-0.0358 z"
       id="path2822" />
    <path
       style="fill:#4e7104"
       d="m 192.5,115.04258 c 1.1,-0.45213 5.26106,-2.03588 9.24679,-3.51943 3.98574,-1.48356 8.1556,-3.44567 9.26636,-4.36026 1.48446,-1.22229 4.8238,-11.466455 12.60313,-38.66289 5.82096,-20.35 10.95835,-37.397252 11.41642,-37.882783 0.45808,-0.48553 1.5484,-0.608204 2.42295,-0.272609 1.39832,0.536585 1.42567,1.004851 0.22683,3.882782 -0.74979,1.799936 -6.0343,19.204299 -11.74334,38.676364 l -10.38008,35.403756 -4.43166,1.96033 c -5.1333,2.27071 -16.92548,5.76348 -19.12422,5.66448 -0.9908,-0.0446 -0.82145,-0.34789 0.49682,-0.88974 z m -50.00006,-2.37829 C 135.35526,110.00708 125,104.23697 125,102.91304 c 0,-0.5171 0.46195,-1.72157 1.02655,-2.67661 0.5646,-0.955036 3.96701,-12.08643 7.56091,-24.73643 12.87851,-45.33052 13.92768,-48.756813 15.06396,-49.194649 1.39539,-0.53768 11.02555,6.222544 12.32618,8.652789 0.51083,0.954508 0.5856,2.141906 0.16615,2.638664 C 160.72429,38.093562 159.11404,42.775 157.56541,48 c -1.54864,5.225 -3.89724,12.875 -5.21912,17 -1.32187,4.125 -3.26082,10.65 -4.30877,14.5 -4.03748,14.833107 -7.91698,29.95362 -7.73145,30.13369 0.10666,0.10352 2.44393,1.34171 5.19393,2.75154 6.12473,3.13993 4.97884,3.24652 -3.00006,0.27906 z"
       id="path2820" />
  </g>
</svg>
