/* XPM */
static char *pymecavideo-64x64[] = {
/* columns rows colors chars-per-pixel */
"64 64 185 2",
"   c #010000",
".  c #080505",
"X  c #0B0A02",
"o  c #0C0B0A",
"O  c #110F02",
"+  c #100E0D",
"@  c #141203",
"#  c #131209",
"$  c #191703",
"%  c #1B1903",
"&  c #1B1A0E",
"*  c #151413",
"=  c #191616",
"-  c #181815",
";  c #1D1B1B",
":  c #201F05",
">  c #291D0B",
",  c #391A16",
"<  c #242206",
"1  c #282404",
"2  c #2D2905",
"3  c #2D2A0B",
"4  c #272616",
"5  c #22221E",
"6  c #312D06",
"7  c #3E250F",
"8  c #363106",
"9  c #353108",
"0  c #3E3506",
"q  c #393608",
"w  c #3F3B08",
"e  c #242424",
"r  c #282625",
"t  c #282824",
"y  c #2D2C2C",
"u  c #302E2E",
"i  c #323232",
"p  c #383737",
"a  c #3D3C3C",
"s  c #460200",
"d  c #4D0100",
"f  c #550000",
"g  c #5C0000",
"h  c #433D07",
"j  c #443E08",
"k  c #533015",
"l  c #403E3E",
"z  c #630000",
"x  c #6B0000",
"c  c #710303",
"v  c #683B1A",
"b  c #4A4509",
"n  c #4D4808",
"m  c #524C09",
"M  c #575009",
"N  c #5A540A",
"B  c #5F590A",
"V  c #424131",
"C  c #635B0A",
"Z  c #7D471F",
"A  c #66600B",
"S  c #6B640C",
"D  c #726B0D",
"F  c #7D750E",
"G  c #686220",
"H  c #6E6B35",
"J  c #7B7422",
"K  c #434141",
"L  c #484646",
"P  c #4C4C4C",
"I  c #524F4F",
"U  c #555454",
"Y  c #5C5A5A",
"T  c #664D4D",
"R  c #6B6841",
"E  c #726E43",
"W  c #656564",
"Q  c #6C6767",
"!  c #6D6C6C",
"~  c #727272",
"^  c #7B7A7A",
"/  c #9C3434",
"(  c #A03634",
")  c #A83937",
"_  c #925324",
"`  c #827B0E",
"'  c #A6642E",
"]  c #A94E4B",
"[  c #A0544C",
"{  c #FE0000",
"}  c #FB0F0F",
"|  c #FA1414",
" . c #F62323",
".. c #F23636",
"X. c #D2673A",
"o. c #DB6F3B",
"O. c #E3773C",
"+. c #EB7F3E",
"@. c #DB4949",
"#. c #C76262",
"$. c #E34C4C",
"%. c #EE4444",
"&. c #EB4E4E",
"*. c #EA5555",
"=. c #F35151",
"-. c #FE5454",
";. c #E76262",
":. c #EE7B7B",
">. c #F76767",
",. c #F76868",
"<. c #F27373",
"1. c #F07979",
"2. c #89810F",
"3. c #938A10",
"4. c #9C9311",
"5. c #A59C12",
"6. c #ABA113",
"7. c #B0A613",
"8. c #BDB215",
"9. c #898553",
"0. c #878675",
"q. c #908F7F",
"w. c #95936E",
"e. c #A69B5F",
"r. c #BC825C",
"t. c #A39F63",
"y. c #B2AF7F",
"u. c #B6B16E",
"i. c #C1B615",
"p. c #C5BA16",
"a. c #C9BD16",
"s. c #F3863E",
"d. c #FB8E3E",
"f. c #FF913F",
"g. c #EDBB69",
"h. c #CCC017",
"j. c #D0C417",
"k. c #D4C817",
"l. c #DBCE18",
"z. c #E4D719",
"x. c #E7D919",
"c. c #EBDD1A",
"v. c #EFE11A",
"b. c #F2E41A",
"n. c #FDEE1B",
"m. c #CAC579",
"M. c #CEC97D",
"N. c #D0CA7A",
"B. c #838383",
"V. c #8B8585",
"C. c #898987",
"Z. c #8B8B8B",
"A. c #908F81",
"S. c #908A8A",
"D. c #999781",
"F. c #9C9A81",
"G. c #939292",
"H. c #9A9696",
"J. c #9A9A99",
"K. c #A19D9D",
"L. c #A4A181",
"P. c #A4A4A4",
"I. c #ABABAB",
"U. c #B0ADAD",
"Y. c #B2B2B2",
"T. c #B9B7B7",
"R. c #BABABA",
"E. c #DA9696",
"W. c #D89C9C",
"Q. c #C2BE84",
"!. c #C4B8B8",
"~. c #DCA6A6",
"^. c #DBA8A8",
"/. c #D5B6B6",
"(. c #D0B9B9",
"). c #EA8585",
"_. c #E59292",
"`. c #DCD684",
"'. c #DED887",
"]. c #E0DA88",
"[. c #C3C3C3",
"{. c #CDC6C6",
"}. c #CBCBCB",
"|. c gray100",
" X c None",
/* pixels */
" X X X X X X X XV.V.V.V.V.V.V.V.V.V.V.V.V.V.V.V.V.V.V.V.V.V.V.V.V.V.V.V.V.V.V.V.V.V.V.V.V.V.V.V.V.V.V.V.V.V.V.V. X X X X X X X X",
" X X X X X X XV.V.V.V.V.V.V.V.V.V.V.V.V.V.V.V.V.V.V.V.V.V.V.V.V.V.V.V.V.V.V.V.V.V.V.V.V.V.V.V.V.V.V.V.V.V.V.V.V.V. X X X X X X X",
" X X X X XV.V.V.V.V.V.V.V.V.V.V.C.V.V.V.V.V.V.V.V.V.V.V.V.V.V.V.V.V.V.V.V.V.V.V.V.V.V.V.V.V.V.V.V.V.V.V.V.V.V.V.V.V.V. X X X X X",
" X X X X XV.V.V.V.V.V.V.V.V.V.V.V.V.V.V.V.V.V.V.V.V.V.V.V.V.V.V.B.V.V.V.V.V.V.V.V.V.V.C.V.V.V.V.V.V.V.V.V.V.V.V.V.V.V. X X X X X",
" X X X XV.V.V.V.V.Z.I.R.[.[.[.[.[.[.[.[.[.[.[.[.[.[.[.[.[.[.[.[.[.[.[.[.[.[.[.[.[.[.[.[.[.[.[.[.[.[.[.[.R.I.Z.V.V.V.V.V. X X X X",
" X X X XV.V.V.V.S.[.}.}.}.}.}.}.}.}.}.}.}.}.}.}.}.}.}.}.}.}.}.}.}.}.}.}.}.}.}.}.}.}.}.}.}.}.}.}.}.}.}.}.}.}.[.V.V.V.V.V. X X X X",
" X X X XV.V.V.V.Y.}.}.}.P.a a a l l l l l l L [.}.}.}.}.}.}.}.}.}.}.}.}.}.}.}.}.U.l l l l a l l a l l J.}.}.}.I.V.V.V.V. X X X X",
" X X X XV.V.V.V.[.}.}.[.-                     B.}.}.}.}.}.}.}.}.}.}.}.}.}.}.}.}.P                     . I.}.}.[.V.V.V.V. X X X X",
" X X X XV.V.V.V.}.}.}.I.        o .           5 }.}.}.}.}.}.}.}.}.}.}.}.}.}.}.Y.                        Z.}.}.}.V.V.V.V. X X X X",
" X X X XV.V.V.S.}.}.}.I.    5 y i p y           P }.}.}.}.}.}.}.}.}.}.}.}.}.R.e         . r t e t *     Z.}.}.}.V.V.V.V. X X X X",
" X X X XV.V.V.V.}.}.}.I.  K }.}.}.}.}.[           e ^ J.I.P.P.P.P.P.P.P.H.W +         . S.}.}.}.}.R.y   Z.}.}.}.V.V.V.V. X X X X",
" X X X XV.V.V.Z.}.}.}.I.  U.}.}.}.}.}.}.y                                             l }.}.}.}.}.}.J.  Z.}.}.}.V.V.V.V. X X X X",
" X X X XV.V.V.V.}.}.}.I.  Y.}.}.}.}.}.}.r                                             K }.}.}.}.}.}.J.  Z.}.}.}.B.V.V.V. X X X X",
" X X X XV.V.V.V.}.}.}.I.  Y.}.}.}.}.}.}.r                                             K }.}.}.}.}.}.J.  Z.}.}.}.V.V.V.V. X X X X",
" X X X XV.V.V.V.}.}.}.I.  Y.}.}.}.}.}.}.r .                                           K }.}.}.}.}.}.J.  Z.}.}.}.V.V.V.V. X X X X",
" X X X XV.V.V.Z.}.}.}.I.  Y.}.}.}.}.}.}.r                                             K }.}.}.}.}.}.J.  Z.}.}.{.V.V.V.V. X X X X",
" X X X XV.V.V.V.}.}.}.I.  Y.}.}.}.}.}.}.r             .       .   .             .     l }.}.}.}.}.}.J.  Z.}.}.}.V.V.V.V. X X X X",
" X X X XV.V.V.V.}.}.}.I.  P }.}.}.}.}.V..               .             .               + P.}.}.}.}.}.l   Z.}.}.}.V.V.V.V. X X X X",
" X X X XV.V.V.V.}.}.}.I.    y p a a p                             .     .             . + L L L L y     Z.}.}.}.V.V.V.V. X X X X",
" X X X XV.V.V.S.}.}.}.I.                  .     u I.Y.Y.Y.Y.T.Y.Y.Y.Y.Y.Y.Y.Y.K   .                     Z.}.}.}.V.V.V.V. X X X X",
" X X X XV.V.V.V.}.}.}.I.                      i [.}.(.{.}.}.}.}.{.}.}.}.}.}.}.{.K                       Z.}.}.}.V.V.V.V. X X X X",
" X X X XV.V.V.V.}.}.}.I.    p L L L L . .   u (.*.} { { ..W.}.}.}.}.}.}.}.}.}.}.{.l     . l l a p 5     Z.}.}.}.V.V.V.V. X X X X",
" X X X XV.V.V.V.}.}.}.I.  Y }.}.}.}.}.S.  r !. .{ { { { { { E.}.}.}.}.}.}.}.}.}.}.{.l X H.}.}.}.}.[.p   Z.}.}.}.V.V.V.V. X X X X",
" X X X XV.V.V.S.}.}.}.I.  R.}.}.}.}.}.}.r U ;.{ { { { { { { | }.}.}.}.}.}.}.}.}.}.}.! l }.}.}.}.}.}.J.  Z.}.}.}.V.V.V.V. X X X X",
" X X X XV.V.V.V.}.}.}.I.  R.}.}.}.}.}.}.t U  .{ { { { { { { { W.}.}.}.}.}.}.}.}.}.}.! K }.}.}.}.}.}.J.  Z.}.}.}.V.V.V.V. X X X X",
" X X X XV.V.V.V.}.}.}.I.  R.}.}.}.}.}.}.t U | { { { { { { { { W.}.}.}.}.}.}.}.}.}.}.! K }.}.}.}.}.}.J.  Z.}.}.}.V.V.V.V. X X X X",
" X X X XV.V.V.S.}.}.}.I.  R.}.}.}.}.}.}.t U $.{ { { { { { { { (.}.}.}.}.}.}.}.}.}.}.! K }.}.}.}.}.}.J.  Z.}.}.}.V.V.V.V. X X X X",
" X X X XV.V.V.V.}.}.}.I.  C.G.C.Z.[ ^ ~ - t T c x z g f d s , y t 5 V.}.}.}.}.}.}.}.! l }.}.}.}.}.}.J.  Z.}.}.}.V.V.V.V. X X X X",
" X X X XV.V.V.Z.}.}.}.I.  i     * o # & % < 3 9 0 h b m M B A S D   Z.}.}.}.}.}.}.}.! K }.}.}.}.}.}.J.  Z.}.}.}.V.V.V.V. X X X X",
" X X X XV.V.V.V.}.}.}.I.  a ; q b.n.n.n.n.n.n.n.n.n.n.n.n.n.n.n.c.  W 0.G.}.}.}.}.}.! . G.}.}.}.}.[.y   Z.}.}.}.V.V.V.V. X X X X",
" X X X XV.V.V.V.}.}.}.I.    - . B n.n.n.n.n.n.n.n.n.n.n.n.n.n.n.k.  w.C.H.}.}.}.}.}.~   . y u u y -     Z.}.}.}.V.V.V.V. X X X X",
" X X X XV.V.V.V.}.}.}.I.        o ` n.n.n.n.n.n.n.n.n.n.n.n.n.n.8.  M.F.J.}.}.}.}.}.!                   Z.}.}.}.V.B.V.V. X X X X",
" X X X XV.V.V.V.}.}.}.I.            6.n.n.n.n.n.n.n.n.n.n.n.n.n.6.  '.A.P.}.}.}.}.}.!                   Z.}.}.}.V.V.V.V. X X X X",
" X X X XV.V.V.V.}.}.}.I.    L Y Y t X k.n.n.n.n.n.n.n.n.n.n.n.n.4.# g.[ #.)./.}.}.}.!   * I I I I u     Z.}.}.}.V.V.V.V. X X X X",
" X X X XV.V.V.V.}.}.}.I.  ! }.}.}.}.- % b.n.n.n.n.n.n.n.n.n.n.n.` > f./ @.-.-._.}.}.~ + P.}.}.}.}.}.L   Z.}.}.}.V.V.V.V. X X X X",
" X X X XV.V.V.Z.}.}.}.I.  R.}.}.R.a   3.n.n.n.n.n.n.n.n.n.n.n.n.S 7 d./ $.-.-.-.~.}.! K }.}.}.}.}.}.J.  Z.}.}.}.V.V.V.V. X X X X",
" X X X XV.V.V.V.}.}.}.I.  R.}.I.5 @ i.n.n.n.n.n.n.n.n.n.n.n.n.n.M k s./ &.-.-.-.1.}.! l }.}.}.}.}.}.J.  Z.}.}.}.V.V.V.V. X X X X",
" X X X XV.V.V.V.}.}.}.I.  R.C.o q z.n.n.n.n.n.n.n.n.n.n.n.n.n.n.h v s./ =.-.-.-.>.}.! l }.}.}.}.}.}.J.  Z.}.}.}.V.V.V.V. X X X X",
" X X X XV.V.V.Z.}.}.}.I.  U   A n.n.n.n.n.n.n.n.n.n.n.n.n.n.n.n.2 Z O./ -.-.-.-.<.}.~ l }.}.}.}.}.}.J.  Z.}.}.}.V.V.V.V. X X X X",
" X X X XV.V.V.C.}.}.}.K.  X 4.n.n.n.n.n.n.n.n.n.n.n.n.n.n.n.n.n.$ _ o./ -.-.-.-.~.}.! l }.}.}.}.}.}.J.  Z.}.}.}.V.V.V.V. X X X X",
" X X X XV.V.V.V.}.}.P.* $ h.n.n.n.n.n.n.n.n.n.n.n.n.n.n.n.n.n.n.. ' X.) -.-.-.).}.}.! a }.}.}.}.}.}.G.  Z.}.}.}.V.V.V.V. X X X X",
" X X X XV.V.V.Z.}.B.. w x.n.n.n.n.n.n.n.n.n.n.n.n.n.n.b.n.n.n.b.  e.r.] ,.1.^.}.}.}.a   V.}.}.}.}.R.5   Z.}.}.}.V.V.V.V. X X X X",
" X X X XV.V.V.V.U   S n.n.n.n.n.n.n.n.n.n.n.n.n.n.n.7.@ h.n.n.l.  u.L.G.}.}.}.}.}.L       ; ; ; ; o     Z.}.}.}.V.V.V.V. X X X X",
" X X X XV.V.^ 5 X 5.n.n.n.n.n.n.n.n.n.n.n.n.n.n.n.3.  & % z.n.p.  m.F.J.}.}.}.{.K                       Z.}.}.}.V.V.V.V. X X X X",
" X X X XV.Q + : k.n.n.n.n.n.n.n.n.n.n.n.n.n.n.n.D   E m.4 2 b.6.  M.0.G.R.R.T.K           .             Z.}.}.}.V.B.V.V. X X X X",
" X X X XI   b c.n.n.n.n.n.n.n.n.n.n.n.n.n.n.b.n   j C n X . M 4.X C X         .     .   = Q Q Q W L     Z.}.}.}.V.V.V.V. X X X X",
" X X X    D n.n.n.n.n.n.n.n.n.n.n.n.n.n.n.x.2 X m C j         < X C .             .   = T.}.}.}.}.}.U   Z.}.}.}.V.V.V.V. X X X X",
" X X X  o b n.n.n.n.n.n.n.n.n.n.n.n.n.n.k.% @ M C 8             X m                   l {.}.}.}.}.}.J.  Z.}.}.}.V.V.V.V. X X X X",
" X X X XQ . S n.n.n.n.n.n.n.n.n.n.n.n.8.X $ B C 1                 .                   l }.}.}.}.}.}.J.  Z.}.}.}.Z.V.V.V. X X X X",
" X X X XV.Y   2.n.n.n.n.n.n.n.n.n.n.4.. 3 B B %                                       l }.}.}.}.}.}.J.  Z.}.}.}.V.V.V.V. X X X X",
" X X X XV.V.P   6.n.n.n.n.n.n.n.n.F   R J M O                                         K }.}.}.}.}.}.J.  Z.}.}.}.V.V.V.V. X X X X",
" X X X XV.V.V.p . p.n.n.n.n.n.b.N   9.`.G X           ; i i i i i i y i y o           K }.}.}.}.}.}.J.  Z.}.}.}.V.V.V.V. X X X X",
" X X X XV.V.V.V.a O l.n.n.n.v.w X t.'.`.*         P R.}.}.}.}.}.}.}.}.}.}.}.C.*       p }.}.}.}.}.}.G.  Z.}.}.}.V.V.V.V. X X X X",
" X X X XV.V.V.Z.[.t < v.n.l.1 & u.`.y.u         U }.}.}.}.}.}.}.}.}.}.}.}.}.}.I.o       ! }.}.}.}.U.*   Z.}.}.}.V.V.V.V. X X X X",
" X X X XV.V.V.V.}.T.- q 8.@ @ N C 2           o [.}.}.}.}.}.}.}.}.}.}.}.}.}.}.}.W                       Z.}.}.}.V.V.V.V. X X X X",
" X X X XV.V.V.V.}.}.I.o   @ B B %             U }.}.}.}.}.}.}.}.}.}.}.}.}.}.}.}.Y.                    + I.}.}.}.V.V.V.V. X X X X",
" X X X XV.V.V.V.}.}.}.J.a y H V u K P P P P P I.}.}.}.}.}.}.}.}.}.}.}.}.}.}.}.}.}.Q P P P P P P P P P P.}.}.}.[.V.V.V.V. X X X X",
" X X X XV.V.V.V.R.}.}.}.}.J.^ C.[.}.}.}.}.}.}.}.}.}.}.}.}.}.}.}.}.}.}.}.}.}.}.}.}.}.}.}.}.}.}.}.}.}.}.}.}.}.}.T.V.V.V.V. X X X X",
" X X X XV.V.V.V.H.}.}.}.}.}.P.[.}.}.}.}.}.}.}.}.}.}.}.}.}.}.}.}.}.}.}.}.}.}.}.}.}.}.}.}.}.}.}.}.}.}.}.}.}.}.}.G.V.V.V.V. X X X X",
" X X X XV.V.V.V.V.K.[.}.}.}.}.}.}.}.}.}.}.}.}.}.}.}.}.}.}.}.}.}.}.}.}.}.}.}.}.}.}.}.}.}.}.}.}.}.}.}.}.}.}.[.K.V.V.V.V.V. X X X X",
" X X X X XV.V.V.V.V.V.G.J.H.H.H.H.H.H.H.H.H.H.H.H.H.H.H.H.H.H.H.H.H.H.H.J.H.H.H.H.H.H.H.H.H.H.H.H.H.H.H.S.V.V.V.V.V.B. X X X X X",
" X X X X XV.V.V.V.V.V.V.V.V.V.V.V.V.V.V.V.V.V.V.V.V.V.V.V.V.V.V.V.V.V.V.V.V.V.V.V.V.V.V.V.V.V.V.V.V.V.V.V.V.V.V.V.V.V. X X X X X",
" X X X X X XV.V.V.0.V.V.V.V.V.V.V.V.V.V.V.V.V.V.V.V.V.V.V.V.V.V.V.V.V.V.V.V.V.V.V.V.V.V.V.V.V.V.V.V.V.V.V.V.V.V.V.V. X X X X X X",
" X X X X X X XV.V.V.V.V.V.V.V.V.V.V.V.V.V.V.V.V.V.V.V.V.V.V.V.V.V.V.V.V.V.V.V.V.V.V.V.V.V.V.V.V.V.V.V.V.V.V.V.V.V. X X X X X X X"
};
