<?xml version="1.0" encoding="UTF-8" standalone="no"?>
<svg
   xmlns:dc="http://purl.org/dc/elements/1.1/"
   xmlns:cc="http://creativecommons.org/ns#"
   xmlns:rdf="http://www.w3.org/1999/02/22-rdf-syntax-ns#"
   xmlns:svg="http://www.w3.org/2000/svg"
   xmlns="http://www.w3.org/2000/svg"
   viewBox="0 0 16 16"
   version="1.1"
   id="svg6"
   width="16"
   height="16">
  <metadata
     id="metadata10">
    <rdf:RDF>
      <cc:Work
         rdf:about="">
        <dc:format>image/svg+xml</dc:format>
        <dc:type
           rdf:resource="http://purl.org/dc/dcmitype/StillImage" />
        <dc:title></dc:title>
      </cc:Work>
    </rdf:RDF>
  </metadata>
  <defs
     id="defs3051">
    <style
       type="text/css"
       id="current-color-scheme">
      .ColorScheme-Text {
        color:#232629;
      }
      .ColorScheme-NegativeText {
        color:#da4453;
      }
      </style>
  </defs>
  <path
     style="fill:currentColor;fill-opacity:1;stroke:none;stroke-width:1.33332"
     class="ColorScheme-NegativeText"
     d="M 8,0 A 8,7.9999802 0 0 0 3.3697917,1.484375 L 4.328125,2.4427082 A 6.6666666,6.6666666 0 0 1 8,1.3333334 6.6666666,6.6666666 0 0 1 14.666666,8 6.6666666,6.6666666 0 0 1 13.557291,11.671874 l 0.95573,0.955731 A 8,7.9999802 0 0 0 16,8 8,7.9999802 0 0 0 8,0 Z M 1.4869792,3.3723959 A 8,7.9999802 0 0 0 0,8 8,7.9999802 0 0 0 8,16 8,7.9999802 0 0 0 12.630208,14.515625 L 11.671874,13.557293 A 6.6666666,6.6666666 0 0 1 8,14.666666 6.6666666,6.6666666 0 0 1 1.3333334,8 6.6666666,6.6666666 0 0 1 2.4427082,4.328125 Z M 4,6.6666666 V 9.333334 h 8 V 6.6666666 Z"
     id="path4" />
</svg>
