<?xml version="1.0" encoding="UTF-8" standalone="no"?>
<svg
   xmlns:dc="http://purl.org/dc/elements/1.1/"
   xmlns:cc="http://creativecommons.org/ns#"
   xmlns:rdf="http://www.w3.org/1999/02/22-rdf-syntax-ns#"
   xmlns:svg="http://www.w3.org/2000/svg"
   xmlns="http://www.w3.org/2000/svg"
   viewBox="0 0 28 28"
   version="1.1"
   id="svg8"
   width="28"
   height="28">
  <metadata
     id="metadata12">
    <rdf:RDF>
      <cc:Work
         rdf:about="">
        <dc:format>image/svg+xml</dc:format>
        <dc:type
           rdf:resource="http://purl.org/dc/dcmitype/StillImage" />
        <dc:title></dc:title>
      </cc:Work>
    </rdf:RDF>
  </metadata>
  <defs
     id="defs3051">
    <rect
       x="2.1507342"
       y="3.6853304"
       width="86.903229"
       height="71.045555"
       id="rect845" />
    <rect
       x="-24.898577"
       y="-8.8745518"
       width="112.76979"
       height="79.578224"
       id="rect839" />
    <style
       type="text/css"
       id="current-color-scheme">
      .ColorScheme-Text {
        color:#232629;
      }
      .ColorScheme-Highlight {
        color:#3daee9;
      }
      </style>
  </defs>
  <path
     style="fill:currentColor;fill-opacity:1;stroke:none"
     d="M 14.743607,1.7584968 A -13.311049,13.330146 0 0 1 28.052201,15.088575 -13.311049,13.330146 0 0 1 21.997513,26.258497 L 20.616654,24.598341 A -11.181282,11.197323 0 0 0 25.925248,15.088575 -11.181282,11.197323 0 0 0 14.743607,3.8913088 -11.181282,11.197323 0 0 0 3.9682173,12.158888 l 1.964843,0.835937 -4.189453,1.69336 -1.691406,-4.19336 1.949219,0.830078 A -13.311049,13.330146 0 0 1 14.743607,1.7584968 Z"
     class="ColorScheme-Highlight"
     id="path6" />
  <g
     aria-label="90"
     transform="matrix(0.37546354,0,0,0.37546354,15.581478,10.397148)"
     id="text837"
     style="font-style:normal;font-weight:normal;font-size:40px;line-height:1.25;font-family:sans-serif;letter-spacing:-4.67791px;word-spacing:0px;white-space:pre;shape-inside:url(#rect839);fill:#3daee9;fill-opacity:1;stroke:none">
    <path
       d="m -20.503906,25.910156 v -3.59375 q 1.484375,0.703125 3.007812,1.074219 1.523438,0.371094 2.988281,0.371094 3.90625,0 5.9570317,-2.617188 2.0703126,-2.636719 2.3632813,-7.988281 -1.1328125,1.679688 -2.8710938,2.578125 -1.7382812,0.898437 -3.8476562,0.898437 -4.375,0 -6.933594,-2.636718 -2.539062,-2.65625 -2.539062,-7.246094 0,-4.4921875 2.65625,-7.20703125 2.65625,-2.71484375 7.070312,-2.71484375 5.058594,0 7.714844,3.88671875 2.6757812,3.86718745 2.6757812,11.25000025 0,6.894531 -3.2812499,11.015625 -3.2617188,4.101562 -8.7890623,4.101562 -1.484375,0 -3.007813,-0.292969 -1.523437,-0.292968 -3.164062,-0.878906 z m 7.851562,-12.363281 q 2.6562502,0 4.199219,-1.816406 1.5625,-1.8164065 1.5625,-4.980469 0,-3.1445312 -1.5625,-4.9609375 -1.5429688,-1.8359375 -4.199219,-1.8359375 -2.65625,0 -4.21875,1.8359375 -1.542968,1.8164063 -1.542968,4.9609375 0,3.1640625 1.542968,4.980469 1.5625,1.816406 4.21875,1.816406 z"
       style="fill:#3daee9;fill-opacity:1"
       id="path855" />
    <path
       d="m 8.5877151,-0.046875 q -3.046875,0 -4.5898437,3.0078125 -1.5234375,2.9882812 -1.5234375,9.0039065 0,5.996093 1.5234375,9.003906 1.5429687,2.988281 4.5898437,2.988281 3.0664059,0 4.5898439,-2.988281 1.542969,-3.007813 1.542969,-9.003906 0,-6.0156253 -1.542969,-9.0039065 Q 11.654121,-0.046875 8.5877151,-0.046875 Z m 0,-3.125 q 4.9023439,0 7.4804689,3.88671875 2.597656,3.86718745 2.597656,11.25000025 0,7.363281 -2.597656,11.25 -2.578125,3.867187 -7.4804689,3.867187 -4.9023437,0 -7.5,-3.867187 -2.578125,-3.886719 -2.578125,-11.25 0,-7.3828128 2.578125,-11.25000025 2.5976563,-3.88671875 7.5,-3.88671875 z"
       style="fill:#3daee9;fill-opacity:1"
       id="path857" />
  </g>
</svg>
