<?xml version="1.0" encoding="UTF-8" standalone="no"?>
<!DOCTYPE svg PUBLIC "-//W3C//DTD SVG 1.1//EN"
 "http://www.w3.org/Graphics/SVG/1.1/DTD/svg11.dtd">
<!-- Generated by graphviz version 2.43.0 (0)
 -->
<!-- Title: Q Pages: 1 -->
<svg width="210pt" height="412pt"
 viewBox="0.00 0.00 210.00 412.00" xmlns="http://www.w3.org/2000/svg" xmlns:xlink="http://www.w3.org/1999/xlink">
<g id="graph0" class="graph" transform="scale(1 1) rotate(0) translate(4 408)">
<title>Q</title>
<polygon fill="white" stroke="transparent" points="-4,4 -4,-408 206,-408 206,4 -4,4"/>
<!-- Z -->
<g id="node1" class="node">
<title>Z</title>
<polygon fill="none" stroke="black" points="107.5,-367.5 107.5,-403.5 165.5,-403.5 165.5,-367.5 107.5,-367.5"/>
<text text-anchor="middle" x="136.5" y="-381.8" font-family="Times,serif" font-size="14.00">début</text>
</g>
<!-- A -->
<g id="node2" class="node">
<title>A</title>
<polygon fill="none" stroke="black" points="54.5,-294.5 54.5,-330.5 108.5,-330.5 108.5,-294.5 54.5,-294.5"/>
<text text-anchor="middle" x="81.5" y="-308.8" font-family="Times,serif" font-size="14.00">A</text>
</g>
<!-- Z&#45;&gt;A -->
<g id="edge1" class="edge">
<title>Z&#45;&gt;A</title>
<path fill="none" stroke="black" d="M123.19,-367.31C116.5,-358.68 108.27,-348.06 100.89,-338.53"/>
<polygon fill="black" stroke="black" points="103.58,-336.29 94.69,-330.53 98.05,-340.58 103.58,-336.29"/>
</g>
<!-- D -->
<g id="node6" class="node">
<title>D</title>
<polygon fill="none" stroke="black" points="109.5,-75.5 109.5,-111.5 163.5,-111.5 163.5,-75.5 109.5,-75.5"/>
<text text-anchor="middle" x="136.5" y="-89.8" font-family="Times,serif" font-size="14.00">D</text>
</g>
<!-- Z&#45;&gt;D -->
<g id="edge2" class="edge">
<title>Z&#45;&gt;D</title>
<path fill="none" stroke="black" d="M144.14,-367.5C160.78,-328.1 196.86,-227.85 172.5,-148 169.49,-138.15 164,-128.46 158.19,-120.1"/>
<polygon fill="black" stroke="black" points="160.88,-117.86 152.11,-111.91 155.26,-122.03 160.88,-117.86"/>
</g>
<!-- AB -->
<g id="node3" class="node">
<title>AB</title>
<polygon fill="none" stroke="black" points="109.5,-221.5 109.5,-257.5 163.5,-257.5 163.5,-221.5 109.5,-221.5"/>
<text text-anchor="middle" x="136.5" y="-235.8" font-family="Times,serif" font-size="14.00">AB</text>
</g>
<!-- A&#45;&gt;AB -->
<g id="edge3" class="edge">
<title>A&#45;&gt;AB</title>
<path fill="none" stroke="black" d="M94.81,-294.31C101.5,-285.68 109.73,-275.06 117.11,-265.53"/>
<polygon fill="black" stroke="black" points="119.95,-267.58 123.31,-257.53 114.42,-263.29 119.95,-267.58"/>
</g>
<!-- C -->
<g id="node5" class="node">
<title>C</title>
<polygon fill="none" stroke="black" points="0,-0.5 0,-38.5 69,-38.5 69,-0.5 0,-0.5"/>
<text text-anchor="middle" x="34.5" y="-23.3" font-family="Times,serif" font-size="14.00">Échelle</text>
<text text-anchor="middle" x="34.5" y="-8.3" font-family="Times,serif" font-size="14.00">C</text>
</g>
<!-- A&#45;&gt;C -->
<g id="edge6" class="edge">
<title>A&#45;&gt;C</title>
<path fill="none" stroke="black" d="M75.29,-294.17C63.31,-245.79 40.94,-108.92 34.9,-49.09"/>
<polygon fill="black" stroke="black" points="38.36,-48.5 33.97,-38.86 31.39,-49.13 38.36,-48.5"/>
</g>
<!-- A&#45;&gt;D -->
<g id="edge5" class="edge">
<title>A&#45;&gt;D</title>
<path fill="none" stroke="black" d="M80.88,-294.17C80.34,-263.63 81.78,-198.66 100.5,-148 104.13,-138.18 109.91,-128.4 115.79,-119.93"/>
<polygon fill="black" stroke="black" points="118.77,-121.78 121.86,-111.64 113.13,-117.64 118.77,-121.78"/>
</g>
<!-- B -->
<g id="node4" class="node">
<title>B</title>
<polygon fill="none" stroke="black" points="109.5,-148.5 109.5,-184.5 163.5,-184.5 163.5,-148.5 109.5,-148.5"/>
<text text-anchor="middle" x="136.5" y="-162.8" font-family="Times,serif" font-size="14.00">B</text>
</g>
<!-- AB&#45;&gt;B -->
<g id="edge4" class="edge">
<title>AB&#45;&gt;B</title>
<path fill="none" stroke="black" d="M136.5,-221.31C136.5,-213.29 136.5,-203.55 136.5,-194.57"/>
<polygon fill="black" stroke="black" points="140,-194.53 136.5,-184.53 133,-194.53 140,-194.53"/>
</g>
<!-- B&#45;&gt;D -->
<g id="edge8" class="edge">
<title>B&#45;&gt;D</title>
<path fill="none" stroke="black" d="M136.5,-148.31C136.5,-140.29 136.5,-130.55 136.5,-121.57"/>
<polygon fill="black" stroke="black" points="140,-121.53 136.5,-111.53 133,-121.53 140,-121.53"/>
</g>
<!-- C&#45;&gt;A -->
<g id="edge7" class="edge">
<title>C&#45;&gt;A</title>
<path fill="none" stroke="black" d="M40.96,-38.86C53.08,-88.46 75.41,-225.39 81.23,-284.15"/>
<polygon fill="black" stroke="black" points="77.75,-284.52 82.11,-294.17 84.72,-283.9 77.75,-284.52"/>
</g>
<!-- C&#45;&gt;D -->
<g id="edge10" class="edge">
<title>C&#45;&gt;D</title>
<path fill="none" stroke="black" d="M66.24,-38.7C80.25,-47.95 96.46,-59.3 109.84,-69.19"/>
<polygon fill="black" stroke="black" points="108.07,-72.24 118.17,-75.44 112.27,-66.64 108.07,-72.24"/>
</g>
<!-- D&#45;&gt;C -->
<g id="edge9" class="edge">
<title>D&#45;&gt;C</title>
<path fill="none" stroke="black" d="M109.23,-77.23C94.69,-67.78 76.93,-55.43 62.32,-44.67"/>
<polygon fill="black" stroke="black" points="64.23,-41.73 54.13,-38.55 60.04,-47.33 64.23,-41.73"/>
</g>
<!-- E -->
<g id="node7" class="node">
<title>E</title>
<polygon fill="none" stroke="black" points="87,-0.5 87,-38.5 202,-38.5 202,-0.5 87,-0.5"/>
<text text-anchor="middle" x="144.5" y="-23.3" font-family="Times,serif" font-size="14.00">Série d&#39;objets</text>
<text text-anchor="middle" x="144.5" y="-8.3" font-family="Times,serif" font-size="14.00">E</text>
</g>
<!-- D&#45;&gt;E -->
<g id="edge11" class="edge">
<title>D&#45;&gt;E</title>
<path fill="none" stroke="black" d="M132.56,-75.44C132.6,-67.49 133.41,-57.81 134.74,-48.81"/>
<polygon fill="black" stroke="black" points="138.24,-49.15 136.52,-38.7 131.34,-47.94 138.24,-49.15"/>
</g>
<!-- E&#45;&gt;D -->
<g id="edge12" class="edge">
<title>E&#45;&gt;D</title>
<path fill="none" stroke="black" d="M148.43,-38.7C148.32,-46.81 147.44,-56.52 146.07,-65.46"/>
<polygon fill="black" stroke="black" points="142.6,-64.97 144.24,-75.44 149.48,-66.23 142.6,-64.97"/>
</g>
</g>
</svg>
